G04*
G04 #@! TF.GenerationSoftware,Altium Limited,Altium Designer,18.1.6 (161)*
G04*
G04 Layer_Physical_Order=2*
G04 Layer_Color=16711680*
%FSLAX44Y44*%
%MOMM*%
G71*
G01*
G75*
%ADD26C,0.5080*%
%ADD27C,3.5560*%
%ADD28C,2.0320*%
%ADD29C,0.8000*%
G36*
X416041Y-3291D02*
X9409D01*
Y222250D01*
X130350D01*
X131131Y221249D01*
X130848Y220118D01*
X129599Y211700D01*
X129182Y203200D01*
X129599Y194700D01*
X130848Y186282D01*
X132916Y178027D01*
X135783Y170014D01*
X139421Y162321D01*
X143796Y155022D01*
X148866Y148186D01*
X154581Y141881D01*
X160886Y136166D01*
X167722Y131096D01*
X175021Y126721D01*
X182714Y123083D01*
X190727Y120216D01*
X198982Y118148D01*
X207400Y116899D01*
X215900Y116482D01*
X224400Y116899D01*
X232818Y118148D01*
X241073Y120216D01*
X249086Y123083D01*
X256779Y126721D01*
X264078Y131096D01*
X270914Y136166D01*
X277219Y141881D01*
X282934Y148186D01*
X288004Y155022D01*
X292379Y162321D01*
X296017Y170014D01*
X298884Y178027D01*
X300952Y186282D01*
X302201Y194700D01*
X302618Y203200D01*
X302201Y211700D01*
X300952Y220118D01*
X300669Y221249D01*
X301450Y222250D01*
X416041D01*
Y-3291D01*
D02*
G37*
%LPC*%
G36*
X361950Y186283D02*
X358900Y185881D01*
X356058Y184704D01*
X353617Y182831D01*
X351744Y180390D01*
X350567Y177548D01*
X350165Y174498D01*
X350567Y171448D01*
X351744Y168606D01*
X353617Y166165D01*
X356058Y164292D01*
X358900Y163115D01*
X361950Y162713D01*
X365000Y163115D01*
X367842Y164292D01*
X370283Y166165D01*
X372156Y168606D01*
X373333Y171448D01*
X373735Y174498D01*
X373333Y177548D01*
X372156Y180390D01*
X370283Y182831D01*
X367842Y184704D01*
X365000Y185881D01*
X361950Y186283D01*
D02*
G37*
G36*
X69850D02*
X66800Y185881D01*
X63958Y184704D01*
X61517Y182831D01*
X59644Y180390D01*
X58467Y177548D01*
X58065Y174498D01*
X58467Y171448D01*
X59644Y168606D01*
X61517Y166165D01*
X63958Y164292D01*
X66800Y163115D01*
X69850Y162713D01*
X72900Y163115D01*
X75742Y164292D01*
X78183Y166165D01*
X80056Y168606D01*
X81233Y171448D01*
X81635Y174498D01*
X81233Y177548D01*
X80056Y180390D01*
X78183Y182831D01*
X75742Y184704D01*
X72900Y185881D01*
X69850Y186283D01*
D02*
G37*
G36*
X361950Y129387D02*
X358900Y128985D01*
X356058Y127808D01*
X353617Y125935D01*
X351744Y123494D01*
X350567Y120652D01*
X350165Y117602D01*
X350567Y114552D01*
X351744Y111710D01*
X353617Y109269D01*
X356058Y107396D01*
X358900Y106219D01*
X361950Y105817D01*
X365000Y106219D01*
X367842Y107396D01*
X370283Y109269D01*
X372156Y111710D01*
X373333Y114552D01*
X373735Y117602D01*
X373333Y120652D01*
X372156Y123494D01*
X370283Y125935D01*
X367842Y127808D01*
X365000Y128985D01*
X361950Y129387D01*
D02*
G37*
G36*
X184150Y97682D02*
X181995Y97254D01*
X180167Y96033D01*
X178946Y94205D01*
X178518Y92050D01*
X178946Y89895D01*
X180006Y88308D01*
Y60892D01*
X178946Y59305D01*
X178518Y57150D01*
X178946Y54995D01*
X180167Y53167D01*
X181995Y51947D01*
X184150Y51518D01*
X186305Y51947D01*
X188133Y53167D01*
X189354Y54995D01*
X189782Y57150D01*
X189354Y59305D01*
X188294Y60892D01*
Y88308D01*
X189354Y89895D01*
X189782Y92050D01*
X189354Y94205D01*
X188133Y96033D01*
X186305Y97254D01*
X184150Y97682D01*
D02*
G37*
G36*
X361950Y63847D02*
X358166Y63475D01*
X354527Y62371D01*
X351173Y60578D01*
X348234Y58166D01*
X345822Y55227D01*
X344029Y51873D01*
X342925Y48234D01*
X342553Y44450D01*
X342925Y40666D01*
X344029Y37027D01*
X345822Y33673D01*
X348234Y30734D01*
X351173Y28322D01*
X354527Y26529D01*
X358166Y25425D01*
X361950Y25053D01*
X365734Y25425D01*
X369373Y26529D01*
X372727Y28322D01*
X375666Y30734D01*
X378078Y33673D01*
X379871Y37027D01*
X380975Y40666D01*
X381347Y44450D01*
X380975Y48234D01*
X379871Y51873D01*
X378078Y55227D01*
X375666Y58166D01*
X372727Y60578D01*
X369373Y62371D01*
X365734Y63475D01*
X361950Y63847D01*
D02*
G37*
%LPD*%
D26*
X184150Y57150D02*
Y92050D01*
D27*
X361950Y44450D02*
D03*
Y247650D02*
D03*
X69850D02*
D03*
D28*
X361950Y87630D02*
D03*
Y117602D02*
D03*
Y174498D02*
D03*
Y204470D02*
D03*
X69850Y174498D02*
D03*
Y204470D02*
D03*
D29*
X184150Y92050D02*
D03*
X50800Y76200D02*
D03*
X184150Y57150D02*
D03*
X177800Y25400D02*
D03*
M02*
