G04 Layer_Color=65535*
%FSLAX26Y26*%
%MOIN*%
%TF.FileFunction,Legend,Top*%
%TF.Part,Single*%
G01*
G75*
%TA.AperFunction,NonConductor*%
%ADD27C,0.010000*%
%ADD28C,0.009842*%
%ADD29C,0.004000*%
%ADD30C,0.007874*%
%ADD31C,0.005000*%
D27*
X1205000Y875000D02*
G03*
X1205000Y875000I-330000J0D01*
G01*
X385000Y1470000D02*
G03*
X385000Y1470000I-5000J0D01*
G01*
X864987Y1549984D02*
X854990Y1559981D01*
X834997D01*
X825000Y1549984D01*
Y1509997D01*
X834997Y1500000D01*
X854990D01*
X864987Y1509997D01*
X884981Y1500000D02*
X904974D01*
X894977D01*
Y1559981D01*
X884981Y1549984D01*
X94987Y1084984D02*
X84990Y1094981D01*
X64997D01*
X55000Y1084984D01*
Y1044997D01*
X64997Y1035000D01*
X84990D01*
X94987Y1044997D01*
X154968Y1035000D02*
X114981D01*
X154968Y1074987D01*
Y1084984D01*
X144971Y1094981D01*
X124977D01*
X114981Y1084984D01*
X70000Y735000D02*
Y794981D01*
X99990D01*
X109987Y784984D01*
Y764990D01*
X99990Y754994D01*
X70000D01*
X129981Y735000D02*
X149974D01*
X139977D01*
Y794981D01*
X129981Y784984D01*
X1590000Y945000D02*
Y1004981D01*
X1619990D01*
X1629987Y994984D01*
Y974990D01*
X1619990Y964994D01*
X1590000D01*
X1689968Y945000D02*
X1649981D01*
X1689968Y984987D01*
Y994984D01*
X1679971Y1004981D01*
X1659977D01*
X1649981Y994984D01*
X1459987Y674997D02*
Y714984D01*
X1449990Y724981D01*
X1429997D01*
X1420000Y714984D01*
Y674997D01*
X1429997Y665000D01*
X1449990D01*
X1439994Y684994D02*
X1459987Y665000D01*
X1449990D02*
X1459987Y674997D01*
X1479981Y665000D02*
X1499974D01*
X1489977D01*
Y724981D01*
X1479981Y714984D01*
X425000Y1125000D02*
Y1184981D01*
X454990D01*
X464987Y1174984D01*
Y1154990D01*
X454990Y1144994D01*
X425000D01*
X444993D02*
X464987Y1125000D01*
X484981D02*
X504974D01*
X494977D01*
Y1184981D01*
X484981Y1174984D01*
X625000Y1575000D02*
Y1634981D01*
X654990D01*
X664987Y1624984D01*
Y1604990D01*
X654990Y1594994D01*
X625000D01*
X644994D02*
X664987Y1575000D01*
X724968D02*
X684981D01*
X724968Y1614987D01*
Y1624984D01*
X714971Y1634981D01*
X694977D01*
X684981Y1624984D01*
X175000Y1434981D02*
Y1384997D01*
X184997Y1375000D01*
X204990D01*
X214987Y1384997D01*
Y1434981D01*
X234981Y1375000D02*
X254974D01*
X244977D01*
Y1434981D01*
X234981Y1424984D01*
X675000Y75000D02*
Y94993D01*
Y84997D01*
X615019D01*
X625016Y75000D01*
X675000Y164971D02*
Y124984D01*
X635013Y164971D01*
X625016D01*
X615019Y154974D01*
Y134981D01*
X625016Y124984D01*
X615019Y184964D02*
X655006D01*
X675000Y204958D01*
X655006Y224952D01*
X615019D01*
X1134981Y1700000D02*
X1075000D01*
Y1670010D01*
X1084997Y1660013D01*
X1094994D01*
X1104990Y1670010D01*
Y1700000D01*
Y1670010D01*
X1114987Y1660013D01*
X1124984D01*
X1134981Y1670010D01*
Y1700000D01*
X1075000Y1640019D02*
Y1620026D01*
Y1630023D01*
X1134981D01*
Y1640019D01*
X1075000Y1590036D02*
Y1570042D01*
Y1580039D01*
X1114987D01*
Y1590036D01*
X1075000Y1540052D02*
X1114987D01*
Y1510062D01*
X1104990Y1500065D01*
X1075000D01*
Y1480071D02*
X1134981D01*
X1094994D02*
X1114987Y1450081D01*
X1094994Y1480071D02*
X1075000Y1450081D01*
Y1390100D02*
Y1410094D01*
X1084997Y1420091D01*
X1104990D01*
X1114987Y1410094D01*
Y1390100D01*
X1104990Y1380103D01*
X1094994D01*
Y1420091D01*
X1114987Y1360110D02*
X1075000D01*
X1094994D01*
X1104990Y1350113D01*
X1114987Y1340117D01*
Y1330120D01*
D28*
X1384055Y789567D02*
G03*
X1384055Y789567I-4921J0D01*
G01*
D29*
X100000Y1225000D02*
X150000D01*
X100000Y1125000D02*
X150000D01*
X100000D02*
Y1225000D01*
X150000Y1125000D02*
Y1225000D01*
X825000Y1475000D02*
X875000D01*
X825000Y1375000D02*
X875000D01*
X825000D02*
Y1475000D01*
X875000Y1375000D02*
Y1475000D01*
X625000Y1450000D02*
X675000D01*
X625000Y1550000D02*
X675000D01*
Y1450000D02*
Y1550000D01*
X625000Y1450000D02*
Y1550000D01*
X375000Y1125000D02*
Y1175000D01*
X275000Y1125000D02*
Y1175000D01*
X375000D01*
X275000Y1125000D02*
X375000D01*
D30*
X1388976Y834842D02*
Y864370D01*
X1422441D01*
X1477559D02*
X1511024D01*
Y834842D02*
Y864370D01*
D31*
X225000Y1476575D02*
Y1673425D01*
X325000Y1476575D02*
Y1673425D01*
X225000Y1476575D02*
X325000D01*
X225000Y1673425D02*
X325000D01*
%TF.MD5,0dd359c14b435920e4f0a1943081e716*%
M02*
