G04 Layer_Physical_Order=2*
G04 Layer_Color=16711680*
%FSLAX26Y26*%
%MOIN*%
%TF.FileFunction,Copper,L2,Bot,Signal*%
%TF.Part,Single*%
G01*
G75*
%TA.AperFunction,ComponentPad*%
%ADD16C,0.122047*%
%ADD17C,0.066929*%
%TA.AperFunction,ViaPad*%
%ADD18C,0.050000*%
G36*
X1700000Y50000D02*
X50000D01*
Y1700000D01*
X1700000D01*
Y50000D01*
D02*
G37*
%LPC*%
G36*
X442795Y679739D02*
Y641417D01*
X481117D01*
X478738Y653376D01*
X469131Y667753D01*
X454754Y677360D01*
X442795Y679739D01*
D02*
G37*
G36*
X120000Y970000D02*
X90309D01*
X92031Y961344D01*
X99766Y949766D01*
X111344Y942031D01*
X120000Y940309D01*
Y970000D01*
D02*
G37*
G36*
X167205Y679739D02*
Y641417D01*
X205526D01*
X203147Y653376D01*
X193541Y667753D01*
X179164Y677360D01*
X167205Y679739D01*
D02*
G37*
G36*
X432795D02*
X420836Y677360D01*
X406459Y667753D01*
X396853Y653376D01*
X394474Y641417D01*
X432795D01*
Y679739D01*
D02*
G37*
G36*
X130000Y1009691D02*
Y980000D01*
X159691D01*
X157969Y988656D01*
X150234Y1000234D01*
X138656Y1007969D01*
X130000Y1009691D01*
D02*
G37*
G36*
X1450000Y1162997D02*
X1431090Y1159235D01*
X1415059Y1148524D01*
X1404347Y1132493D01*
X1400586Y1113583D01*
X1404347Y1094673D01*
X1415059Y1078642D01*
X1431090Y1067930D01*
X1450000Y1064169D01*
X1468910Y1067930D01*
X1484941Y1078642D01*
X1495653Y1094673D01*
X1499414Y1113583D01*
X1495653Y1132493D01*
X1484941Y1148524D01*
X1468910Y1159235D01*
X1450000Y1162997D01*
D02*
G37*
G36*
X159691Y970000D02*
X130000D01*
Y940309D01*
X138656Y942031D01*
X150234Y949766D01*
X157969Y961344D01*
X159691Y970000D01*
D02*
G37*
G36*
X120000Y1009691D02*
X111344Y1007969D01*
X99766Y1000234D01*
X92031Y988656D01*
X90309Y980000D01*
X120000D01*
Y1009691D01*
D02*
G37*
G36*
X300000Y685831D02*
X281090Y682070D01*
X265059Y671358D01*
X254347Y655327D01*
X250586Y636417D01*
X254347Y617507D01*
X265059Y601476D01*
X281090Y590765D01*
X300000Y587003D01*
X318910Y590765D01*
X334941Y601476D01*
X345653Y617507D01*
X349414Y636417D01*
X345653Y655327D01*
X334941Y671358D01*
X318910Y682070D01*
X300000Y685831D01*
D02*
G37*
G36*
X157205Y631417D02*
X118883D01*
X121262Y619458D01*
X130869Y605081D01*
X145246Y595475D01*
X157205Y593096D01*
Y631417D01*
D02*
G37*
G36*
X300000Y401680D02*
X280154Y399067D01*
X261660Y391406D01*
X245779Y379221D01*
X233594Y363340D01*
X225933Y344846D01*
X223320Y325000D01*
X225933Y305154D01*
X233594Y286660D01*
X245779Y270779D01*
X261660Y258594D01*
X280154Y250933D01*
X300000Y248320D01*
X319846Y250933D01*
X338340Y258594D01*
X354221Y270779D01*
X366406Y286660D01*
X374067Y305154D01*
X376680Y325000D01*
X374067Y344846D01*
X366406Y363340D01*
X354221Y379221D01*
X338340Y391406D01*
X319846Y399067D01*
X300000Y401680D01*
D02*
G37*
G36*
X875000Y1225751D02*
X829218Y1222750D01*
X784219Y1213799D01*
X740773Y1199052D01*
X699625Y1178759D01*
X661476Y1153270D01*
X626982Y1123018D01*
X596731Y1088524D01*
X571241Y1050376D01*
X550948Y1009227D01*
X536201Y965781D01*
X527250Y920782D01*
X524249Y875000D01*
X527250Y829218D01*
X536201Y784219D01*
X550948Y740773D01*
X571241Y699625D01*
X596731Y661476D01*
X626982Y626982D01*
X661476Y596731D01*
X699625Y571241D01*
X740773Y550948D01*
X784219Y536201D01*
X829218Y527250D01*
X875000Y524249D01*
X920782Y527250D01*
X965781Y536201D01*
X1009227Y550948D01*
X1050376Y571241D01*
X1088524Y596731D01*
X1123018Y626982D01*
X1153270Y661476D01*
X1178759Y699625D01*
X1199052Y740773D01*
X1213799Y784219D01*
X1222750Y829218D01*
X1225751Y875000D01*
X1222750Y920782D01*
X1213799Y965781D01*
X1199052Y1009227D01*
X1178759Y1050376D01*
X1153270Y1088524D01*
X1123018Y1123018D01*
X1088524Y1153270D01*
X1050376Y1178759D01*
X1009227Y1199052D01*
X965781Y1213799D01*
X920782Y1222750D01*
X875000Y1225751D01*
D02*
G37*
G36*
X481117Y631417D02*
X442795D01*
Y593096D01*
X454754Y595475D01*
X469131Y605081D01*
X478738Y619458D01*
X481117Y631417D01*
D02*
G37*
G36*
X157205Y679739D02*
X145246Y677360D01*
X130869Y667753D01*
X121262Y653376D01*
X118883Y641417D01*
X157205D01*
Y679739D01*
D02*
G37*
G36*
X205526Y631417D02*
X167205D01*
Y593096D01*
X179164Y595475D01*
X193541Y605081D01*
X203147Y619458D01*
X205526Y631417D01*
D02*
G37*
G36*
X432795D02*
X394474D01*
X396853Y619458D01*
X406459Y605081D01*
X420836Y595475D01*
X432795Y593096D01*
Y631417D01*
D02*
G37*
G36*
X855000Y1359691D02*
Y1330000D01*
X884691D01*
X882969Y1338656D01*
X875234Y1350234D01*
X863656Y1357969D01*
X855000Y1359691D01*
D02*
G37*
G36*
X1450000Y1501680D02*
X1430154Y1499067D01*
X1411660Y1491407D01*
X1395779Y1479221D01*
X1383593Y1463340D01*
X1375933Y1444846D01*
X1373320Y1425000D01*
X1375933Y1405154D01*
X1383593Y1386660D01*
X1395779Y1370779D01*
X1411660Y1358593D01*
X1430154Y1350933D01*
X1450000Y1348320D01*
X1469846Y1350933D01*
X1488340Y1358593D01*
X1504221Y1370779D01*
X1516407Y1386660D01*
X1524067Y1405154D01*
X1526680Y1425000D01*
X1524067Y1444846D01*
X1516407Y1463340D01*
X1504221Y1479221D01*
X1488340Y1491407D01*
X1469846Y1499067D01*
X1450000Y1501680D01*
D02*
G37*
G36*
X884691Y1320000D02*
X855000D01*
Y1290309D01*
X863656Y1292031D01*
X875234Y1299766D01*
X882969Y1311344D01*
X884691Y1320000D01*
D02*
G37*
G36*
X845000Y1359691D02*
X836344Y1357969D01*
X824766Y1350234D01*
X817031Y1338656D01*
X815309Y1330000D01*
X845000D01*
Y1359691D01*
D02*
G37*
G36*
X441000Y1463691D02*
X432344Y1461969D01*
X420766Y1454234D01*
X413031Y1442656D01*
X411309Y1434000D01*
X441000D01*
Y1463691D01*
D02*
G37*
G36*
X451000D02*
Y1434000D01*
X480691D01*
X478969Y1442656D01*
X471234Y1454234D01*
X459656Y1461969D01*
X451000Y1463691D01*
D02*
G37*
G36*
X441000Y1424000D02*
X411309D01*
X413031Y1415344D01*
X420766Y1403766D01*
X432344Y1396031D01*
X441000Y1394309D01*
Y1424000D01*
D02*
G37*
G36*
X480691D02*
X451000D01*
Y1394309D01*
X459656Y1396031D01*
X471234Y1403766D01*
X478969Y1415344D01*
X480691Y1424000D01*
D02*
G37*
G36*
X845000Y1320000D02*
X815309D01*
X817031Y1311344D01*
X824766Y1299766D01*
X836344Y1292031D01*
X845000Y1290309D01*
Y1320000D01*
D02*
G37*
G36*
X1582795Y1108583D02*
X1544474D01*
X1546853Y1096624D01*
X1556459Y1082247D01*
X1570836Y1072640D01*
X1582795Y1070261D01*
Y1108583D01*
D02*
G37*
G36*
X1355526D02*
X1317205D01*
Y1070261D01*
X1329164Y1072640D01*
X1343541Y1082247D01*
X1353147Y1096624D01*
X1355526Y1108583D01*
D02*
G37*
G36*
X1307205D02*
X1268883D01*
X1271262Y1096624D01*
X1280869Y1082247D01*
X1295246Y1072640D01*
X1307205Y1070261D01*
Y1108583D01*
D02*
G37*
G36*
X1631117D02*
X1592795D01*
Y1070261D01*
X1604754Y1072640D01*
X1619131Y1082247D01*
X1628738Y1096624D01*
X1631117Y1108583D01*
D02*
G37*
G36*
X1592795Y1156904D02*
Y1118583D01*
X1631117D01*
X1628738Y1130542D01*
X1619131Y1144919D01*
X1604754Y1154525D01*
X1592795Y1156904D01*
D02*
G37*
G36*
X1317205Y1156904D02*
Y1118583D01*
X1355526D01*
X1353147Y1130542D01*
X1343541Y1144919D01*
X1329164Y1154525D01*
X1317205Y1156904D01*
D02*
G37*
G36*
X1307205Y1156904D02*
X1295246Y1154525D01*
X1280869Y1144919D01*
X1271262Y1130542D01*
X1268883Y1118583D01*
X1307205D01*
Y1156904D01*
D02*
G37*
G36*
X1582795Y1156904D02*
X1570836Y1154525D01*
X1556459Y1144919D01*
X1546853Y1130542D01*
X1544474Y1118583D01*
X1582795D01*
Y1156904D01*
D02*
G37*
%LPD*%
D16*
X1450000Y1425000D02*
D03*
X300000Y325000D02*
D03*
D17*
X1312205Y1113583D02*
D03*
X1450000D02*
D03*
X1587795D02*
D03*
X437795Y636417D02*
D03*
X300000D02*
D03*
X162205D02*
D03*
D18*
X125000Y975000D02*
D03*
X446000Y1429000D02*
D03*
X850000Y1325000D02*
D03*
%TF.MD5,b192d5084e07069b3b5113dd2c7a4d13*%
M02*
