G04*
G04 #@! TF.GenerationSoftware,Altium Limited,Altium Designer,18.1.6 (161)*
G04*
G04 Layer_Color=65535*
%FSLAX44Y44*%
%MOMM*%
G71*
G01*
G75*
%ADD10C,0.2540*%
%ADD11C,0.1000*%
%ADD12C,0.2000*%
D10*
X952500Y1009650D02*
G03*
X952500Y1009650I-83820J0D01*
G01*
D11*
X858710Y899160D02*
X868870Y889000D01*
Y909320D01*
X858710Y889000D02*
Y909320D01*
Y899160D02*
X868870Y909320D01*
X754570Y899160D02*
X983170D01*
X824230Y750570D02*
Y876300D01*
Y750570D02*
X899160D01*
X900430D01*
Y873760D01*
X897890Y876300D02*
X900430Y873760D01*
X824230Y876300D02*
X897890D01*
D12*
X992600Y836676D02*
Y843341D01*
X995932Y846673D01*
X999265Y843341D01*
Y836676D01*
Y841674D01*
X992600D01*
X1009261Y845007D02*
X1007595Y846673D01*
X1004263D01*
X1002597Y845007D01*
Y838342D01*
X1004263Y836676D01*
X1007595D01*
X1009261Y838342D01*
X1012594Y846673D02*
Y836676D01*
X1017592D01*
X1019258Y838342D01*
Y845007D01*
X1017592Y846673D01*
X1012594D01*
X1029255Y845007D02*
X1027589Y846673D01*
X1024257D01*
X1022590Y845007D01*
Y838342D01*
X1024257Y836676D01*
X1027589D01*
X1029255Y838342D01*
X992600Y819880D02*
X995932D01*
X994266D01*
Y829877D01*
X992600Y828211D01*
X1007595Y819880D02*
X1000931D01*
X1007595Y826544D01*
Y828211D01*
X1005929Y829877D01*
X1002597D01*
X1000931Y828211D01*
X1010927Y829877D02*
Y823212D01*
X1014260Y819880D01*
X1017592Y823212D01*
Y829877D01*
X697960Y846550D02*
X701292D01*
X699626D01*
Y856547D01*
X697960Y854881D01*
X712955Y846550D02*
X706291D01*
X712955Y853214D01*
Y854881D01*
X711289Y856547D01*
X707957D01*
X706291Y854881D01*
X716287Y856547D02*
Y849882D01*
X719620Y846550D01*
X722952Y849882D01*
Y856547D01*
X1003074Y872183D02*
X1001408Y873849D01*
X998076D01*
X996410Y872183D01*
Y865518D01*
X998076Y863852D01*
X1001408D01*
X1003074Y865518D01*
X1006407Y873849D02*
Y863852D01*
Y868851D01*
X1008073Y870517D01*
X1011405D01*
X1013071Y868851D01*
Y863852D01*
X1018070Y870517D02*
X1021402D01*
X1023068Y868851D01*
Y863852D01*
X1018070D01*
X1016404Y865518D01*
X1018070Y867185D01*
X1023068D01*
X1026400Y870517D02*
Y863852D01*
Y867185D01*
X1028066Y868851D01*
X1029733Y870517D01*
X1031399D01*
X1039729Y860520D02*
X1041395D01*
X1043062Y862186D01*
Y870517D01*
X1038063D01*
X1036397Y868851D01*
Y865518D01*
X1038063Y863852D01*
X1043062D01*
X1051392D02*
X1048060D01*
X1046394Y865518D01*
Y868851D01*
X1048060Y870517D01*
X1051392D01*
X1053058Y868851D01*
Y867185D01*
X1046394D01*
X707165Y876471D02*
X705498Y878137D01*
X702166D01*
X700500Y876471D01*
Y869806D01*
X702166Y868140D01*
X705498D01*
X707165Y869806D01*
Y873138D01*
X703832D01*
X710497Y868140D02*
Y878137D01*
X717161Y868140D01*
Y878137D01*
X720494D02*
Y868140D01*
X725492D01*
X727158Y869806D01*
Y876471D01*
X725492Y878137D01*
X720494D01*
M02*
