G04*
G04 #@! TF.GenerationSoftware,Altium Limited,Altium Designer,18.1.6 (161)*
G04*
G04 Layer_Physical_Order=2*
G04 Layer_Color=16711680*
%FSLAX44Y44*%
%MOMM*%
G71*
G01*
G75*
%ADD20C,1.2800*%
G04:AMPARAMS|DCode=21|XSize=1mm|YSize=0.8mm|CornerRadius=0.2mm|HoleSize=0mm|Usage=FLASHONLY|Rotation=180.000|XOffset=0mm|YOffset=0mm|HoleType=Round|Shape=RoundedRectangle|*
%AMROUNDEDRECTD21*
21,1,1.0000,0.4000,0,0,180.0*
21,1,0.6000,0.8000,0,0,180.0*
1,1,0.4000,-0.3000,0.2000*
1,1,0.4000,0.3000,0.2000*
1,1,0.4000,0.3000,-0.2000*
1,1,0.4000,-0.3000,-0.2000*
%
%ADD21ROUNDEDRECTD21*%
G04:AMPARAMS|DCode=22|XSize=1mm|YSize=0.8mm|CornerRadius=0.2mm|HoleSize=0mm|Usage=FLASHONLY|Rotation=270.000|XOffset=0mm|YOffset=0mm|HoleType=Round|Shape=RoundedRectangle|*
%AMROUNDEDRECTD22*
21,1,1.0000,0.4000,0,0,270.0*
21,1,0.6000,0.8000,0,0,270.0*
1,1,0.4000,-0.2000,-0.3000*
1,1,0.4000,-0.2000,0.3000*
1,1,0.4000,0.2000,0.3000*
1,1,0.4000,0.2000,-0.3000*
%
%ADD22ROUNDEDRECTD22*%
%ADD23C,2.0000*%
%ADD24C,3.0480*%
G36*
X1020561Y825500D02*
X723149D01*
Y920750D01*
X1020561D01*
Y825500D01*
D02*
G37*
%LPC*%
G36*
X997140Y907970D02*
Y900430D01*
X1004680D01*
X1004541Y901483D01*
X1003644Y903648D01*
X1002218Y905508D01*
X1000358Y906934D01*
X998193Y907831D01*
X997140Y907970D01*
D02*
G37*
G36*
X994600D02*
X993547Y907831D01*
X991382Y906934D01*
X989522Y905508D01*
X988096Y903648D01*
X987199Y901483D01*
X987060Y900430D01*
X994600D01*
Y907970D01*
D02*
G37*
G36*
X737870Y907152D02*
X735801Y906880D01*
X733874Y906082D01*
X732219Y904811D01*
X730948Y903156D01*
X730150Y901229D01*
X729878Y899160D01*
X730150Y897091D01*
X730948Y895164D01*
X732219Y893509D01*
X733874Y892238D01*
X735801Y891440D01*
X737870Y891168D01*
X739939Y891440D01*
X741866Y892238D01*
X743521Y893509D01*
X744792Y895164D01*
X745590Y897091D01*
X745862Y899160D01*
X745590Y901229D01*
X744792Y903156D01*
X743521Y904811D01*
X741866Y906082D01*
X739939Y906880D01*
X737870Y907152D01*
D02*
G37*
G36*
X1004680Y897890D02*
X997140D01*
Y890350D01*
X998193Y890489D01*
X1000358Y891386D01*
X1002218Y892812D01*
X1003644Y894672D01*
X1004541Y896837D01*
X1004680Y897890D01*
D02*
G37*
G36*
X994600D02*
X987060D01*
X987199Y896837D01*
X988096Y894672D01*
X989522Y892812D01*
X991382Y891386D01*
X993547Y890489D01*
X994600Y890350D01*
Y897890D01*
D02*
G37*
G36*
X777240Y884423D02*
Y873252D01*
X788411D01*
X788148Y875245D01*
X786889Y878286D01*
X784885Y880897D01*
X782274Y882901D01*
X779233Y884160D01*
X777240Y884423D01*
D02*
G37*
G36*
X774700D02*
X772707Y884160D01*
X769666Y882901D01*
X767055Y880897D01*
X765051Y878286D01*
X763792Y875245D01*
X763529Y873252D01*
X774700D01*
Y884423D01*
D02*
G37*
G36*
X948690Y884875D02*
X945682Y884479D01*
X942878Y883318D01*
X940471Y881471D01*
X938624Y879064D01*
X937463Y876260D01*
X937067Y873252D01*
X937463Y870244D01*
X938624Y867440D01*
X940471Y865033D01*
X942878Y863186D01*
X945682Y862025D01*
X948690Y861629D01*
X951698Y862025D01*
X954502Y863186D01*
X956909Y865033D01*
X958756Y867440D01*
X959917Y870244D01*
X960313Y873252D01*
X959917Y876260D01*
X958756Y879064D01*
X956909Y881471D01*
X954502Y883318D01*
X951698Y884479D01*
X948690Y884875D01*
D02*
G37*
G36*
X788411Y870712D02*
X777240D01*
Y859541D01*
X779233Y859804D01*
X782274Y861063D01*
X784885Y863067D01*
X786889Y865678D01*
X788148Y868719D01*
X788411Y870712D01*
D02*
G37*
G36*
X774700D02*
X763529D01*
X763792Y868719D01*
X765051Y865678D01*
X767055Y863067D01*
X769666Y861063D01*
X772707Y859804D01*
X774700Y859541D01*
Y870712D01*
D02*
G37*
G36*
X889730Y871463D02*
X885730D01*
X884355Y871189D01*
X883189Y870411D01*
X882411Y869245D01*
X882137Y867870D01*
Y861870D01*
X882411Y860495D01*
X883189Y859329D01*
X884355Y858550D01*
X885730Y858277D01*
X889730D01*
X891105Y858550D01*
X892271Y859329D01*
X893049Y860495D01*
X893323Y861870D01*
Y867870D01*
X893049Y869245D01*
X892271Y870411D01*
X891105Y871189D01*
X889730Y871463D01*
D02*
G37*
G36*
X838930D02*
X834930D01*
X833555Y871189D01*
X832389Y870411D01*
X831610Y869245D01*
X831337Y867870D01*
Y861870D01*
X831610Y860495D01*
X832389Y859329D01*
X833555Y858550D01*
X834930Y858277D01*
X838930D01*
X840305Y858550D01*
X841471Y859329D01*
X842250Y860495D01*
X842523Y861870D01*
Y867870D01*
X842250Y869245D01*
X841471Y870411D01*
X840305Y871189D01*
X838930Y871463D01*
D02*
G37*
G36*
X890730Y846058D02*
X889000D01*
Y840740D01*
X895318D01*
Y841470D01*
X894969Y843226D01*
X893974Y844714D01*
X892486Y845709D01*
X890730Y846058D01*
D02*
G37*
G36*
X886460D02*
X884730D01*
X882974Y845709D01*
X881486Y844714D01*
X880491Y843226D01*
X880142Y841470D01*
Y840740D01*
X886460D01*
Y846058D01*
D02*
G37*
G36*
X839930Y845063D02*
X833930D01*
X832555Y844790D01*
X831389Y844011D01*
X830611Y842845D01*
X830337Y841470D01*
Y837470D01*
X830611Y836095D01*
X831389Y834929D01*
X832555Y834150D01*
X833930Y833877D01*
X839930D01*
X841305Y834150D01*
X842471Y834929D01*
X843250Y836095D01*
X843523Y837470D01*
Y841470D01*
X843250Y842845D01*
X842471Y844011D01*
X841305Y844790D01*
X839930Y845063D01*
D02*
G37*
G36*
X895318Y838200D02*
X889000D01*
Y832882D01*
X890730D01*
X892486Y833231D01*
X893974Y834226D01*
X894969Y835714D01*
X895318Y837470D01*
Y838200D01*
D02*
G37*
G36*
X886460D02*
X880142D01*
Y837470D01*
X880491Y835714D01*
X881486Y834226D01*
X882974Y833231D01*
X884730Y832882D01*
X886460D01*
Y838200D01*
D02*
G37*
G36*
X948690Y854903D02*
X945682Y854507D01*
X942878Y853346D01*
X940471Y851499D01*
X938624Y849092D01*
X937463Y846288D01*
X937067Y843280D01*
X937463Y840272D01*
X938624Y837468D01*
X940471Y835061D01*
X942878Y833214D01*
X945682Y832053D01*
X948690Y831657D01*
X951698Y832053D01*
X954502Y833214D01*
X956909Y835061D01*
X958756Y837468D01*
X959917Y840272D01*
X960313Y843280D01*
X959917Y846288D01*
X958756Y849092D01*
X956909Y851499D01*
X954502Y853346D01*
X951698Y854507D01*
X948690Y854903D01*
D02*
G37*
G36*
X775970Y853633D02*
X772962Y853237D01*
X770158Y852076D01*
X767751Y850229D01*
X765904Y847822D01*
X764743Y845018D01*
X764347Y842010D01*
X764743Y839002D01*
X765904Y836198D01*
X767751Y833791D01*
X770158Y831944D01*
X772962Y830783D01*
X775970Y830387D01*
X778978Y830783D01*
X781782Y831944D01*
X784189Y833791D01*
X786036Y836198D01*
X787197Y839002D01*
X787593Y842010D01*
X787197Y845018D01*
X786036Y847822D01*
X784189Y850229D01*
X781782Y852076D01*
X778978Y853237D01*
X775970Y853633D01*
D02*
G37*
%LPD*%
D20*
X737870Y899160D02*
D03*
X995870D02*
D03*
D21*
X836930Y763270D02*
D03*
X887730D02*
D03*
X836930Y839470D02*
D03*
X887730D02*
D03*
D22*
Y864870D02*
D03*
X836930D02*
D03*
D23*
X775970Y871982D02*
D03*
Y842010D02*
D03*
X948690Y873252D02*
D03*
Y843280D02*
D03*
D24*
X775970Y798830D02*
D03*
X948690Y800100D02*
D03*
M02*
