G04 Layer_Physical_Order=2*
G04 Layer_Color=16711680*
%FSLAX26Y26*%
%MOIN*%
%TF.FileFunction,Copper,L2,Bot,Signal*%
%TF.Part,Single*%
G01*
G75*
%TA.AperFunction,ComponentPad*%
%ADD18C,0.066929*%
%ADD19C,0.122047*%
%TA.AperFunction,ViaPad*%
%ADD20C,0.250000*%
%ADD21C,0.050000*%
G36*
X1700000Y50000D02*
X50000D01*
Y1700000D01*
X1700000D01*
Y50000D01*
D02*
G37*
%LPC*%
G36*
X1307205Y645000D02*
X1269023D01*
X1269859Y638654D01*
X1274238Y628080D01*
X1281205Y619001D01*
X1290285Y612034D01*
X1300858Y607654D01*
X1307205Y606819D01*
Y645000D01*
D02*
G37*
G36*
X480977D02*
X442795D01*
Y606819D01*
X449142Y607654D01*
X459715Y612034D01*
X468795Y619001D01*
X475762Y628080D01*
X480141Y638654D01*
X480977Y645000D01*
D02*
G37*
G36*
X432795D02*
X394614D01*
X395450Y638654D01*
X399829Y628080D01*
X406796Y619001D01*
X415875Y612034D01*
X426449Y607654D01*
X432795Y606819D01*
Y645000D01*
D02*
G37*
G36*
X1355386D02*
X1317205D01*
Y606819D01*
X1323551Y607654D01*
X1334124Y612034D01*
X1343204Y619001D01*
X1350171Y628080D01*
X1354551Y638654D01*
X1355386Y645000D01*
D02*
G37*
G36*
X157205Y693181D02*
X150858Y692346D01*
X140285Y687966D01*
X131205Y680999D01*
X124239Y671920D01*
X119859Y661346D01*
X119023Y655000D01*
X157205D01*
Y693181D01*
D02*
G37*
G36*
X1630977Y645000D02*
X1592795D01*
Y606819D01*
X1599142Y607654D01*
X1609715Y612034D01*
X1618795Y619001D01*
X1625762Y628080D01*
X1630141Y638654D01*
X1630977Y645000D01*
D02*
G37*
G36*
X1582795D02*
X1544614D01*
X1545449Y638654D01*
X1549829Y628080D01*
X1556796Y619001D01*
X1565876Y612034D01*
X1576449Y607654D01*
X1582795Y606819D01*
Y645000D01*
D02*
G37*
G36*
X875000Y1220416D02*
X841143Y1218753D01*
X807613Y1213779D01*
X774731Y1205543D01*
X742815Y1194123D01*
X712172Y1179630D01*
X683097Y1162203D01*
X655870Y1142010D01*
X630754Y1119246D01*
X607990Y1094130D01*
X587797Y1066903D01*
X570370Y1037828D01*
X555877Y1007185D01*
X544457Y975269D01*
X536221Y942387D01*
X531247Y908857D01*
X529584Y875000D01*
X531247Y841143D01*
X536221Y807613D01*
X544457Y774731D01*
X555877Y742815D01*
X570370Y712172D01*
X587797Y683097D01*
X607990Y655870D01*
X630754Y630754D01*
X655870Y607990D01*
X683097Y587797D01*
X712172Y570370D01*
X742815Y555877D01*
X774731Y544457D01*
X807613Y536221D01*
X841143Y531247D01*
X875000Y529584D01*
X908857Y531247D01*
X942387Y536221D01*
X975269Y544457D01*
X1007185Y555877D01*
X1037828Y570370D01*
X1066903Y587797D01*
X1094130Y607990D01*
X1119246Y630754D01*
X1142010Y655870D01*
X1162203Y683097D01*
X1179630Y712172D01*
X1194123Y742815D01*
X1205543Y774731D01*
X1213779Y807613D01*
X1218753Y841143D01*
X1220416Y875000D01*
X1218753Y908857D01*
X1213779Y942387D01*
X1205543Y975269D01*
X1194123Y1007185D01*
X1179630Y1037828D01*
X1162203Y1066903D01*
X1142010Y1094130D01*
X1119246Y1119246D01*
X1094130Y1142010D01*
X1066903Y1162203D01*
X1037828Y1179630D01*
X1007185Y1194123D01*
X975269Y1205543D01*
X942387Y1213779D01*
X908857Y1218753D01*
X875000Y1220416D01*
D02*
G37*
G36*
X1450000Y409950D02*
X1436077Y408579D01*
X1422689Y404517D01*
X1410351Y397922D01*
X1399536Y389047D01*
X1390660Y378232D01*
X1384065Y365894D01*
X1380004Y352506D01*
X1378633Y338583D01*
X1380004Y324660D01*
X1384065Y311272D01*
X1390660Y298933D01*
X1399536Y288118D01*
X1410351Y279243D01*
X1422689Y272648D01*
X1436077Y268587D01*
X1450000Y267215D01*
X1463923Y268587D01*
X1477311Y272648D01*
X1489649Y279243D01*
X1500464Y288118D01*
X1509340Y298933D01*
X1515935Y311272D01*
X1519996Y324660D01*
X1521367Y338583D01*
X1519996Y352506D01*
X1515935Y365894D01*
X1509340Y378232D01*
X1500464Y389047D01*
X1489649Y397922D01*
X1477311Y404517D01*
X1463923Y408579D01*
X1450000Y409950D01*
D02*
G37*
G36*
X300000D02*
X286077Y408579D01*
X272689Y404517D01*
X260351Y397922D01*
X249536Y389047D01*
X240660Y378232D01*
X234065Y365894D01*
X230004Y352506D01*
X228633Y338583D01*
X230004Y324660D01*
X234065Y311272D01*
X240660Y298933D01*
X249536Y288118D01*
X260351Y279243D01*
X272689Y272648D01*
X286077Y268587D01*
X300000Y267215D01*
X313923Y268587D01*
X327311Y272648D01*
X339649Y279243D01*
X350464Y288118D01*
X359340Y298933D01*
X365935Y311272D01*
X369996Y324660D01*
X371367Y338583D01*
X369996Y352506D01*
X365935Y365894D01*
X359340Y378232D01*
X350464Y389047D01*
X339649Y397922D01*
X327311Y404517D01*
X313923Y408579D01*
X300000Y409950D01*
D02*
G37*
G36*
Y693840D02*
X288654Y692346D01*
X278080Y687966D01*
X269001Y680999D01*
X262034Y671920D01*
X257654Y661346D01*
X256160Y650000D01*
X257654Y638654D01*
X262034Y628080D01*
X269001Y619001D01*
X278080Y612034D01*
X288654Y607654D01*
X300000Y606160D01*
X311346Y607654D01*
X321920Y612034D01*
X330999Y619001D01*
X337966Y628080D01*
X342346Y638654D01*
X343840Y650000D01*
X342346Y661346D01*
X337966Y671920D01*
X330999Y680999D01*
X321920Y687966D01*
X311346Y692346D01*
X300000Y693840D01*
D02*
G37*
G36*
X205386Y645000D02*
X167205D01*
Y606819D01*
X173551Y607654D01*
X184125Y612034D01*
X193204Y619001D01*
X200171Y628080D01*
X204550Y638654D01*
X205386Y645000D01*
D02*
G37*
G36*
X157205D02*
X119023D01*
X119859Y638654D01*
X124239Y628080D01*
X131205Y619001D01*
X140285Y612034D01*
X150858Y607654D01*
X157205Y606819D01*
Y645000D01*
D02*
G37*
G36*
X1450000Y693840D02*
X1438653Y692346D01*
X1428080Y687966D01*
X1419001Y680999D01*
X1412034Y671920D01*
X1407654Y661346D01*
X1406160Y650000D01*
X1407654Y638654D01*
X1412034Y628080D01*
X1419001Y619001D01*
X1428080Y612034D01*
X1438653Y607654D01*
X1450000Y606160D01*
X1461347Y607654D01*
X1471920Y612034D01*
X1480999Y619001D01*
X1487966Y628080D01*
X1492346Y638654D01*
X1493840Y650000D01*
X1492346Y661346D01*
X1487966Y671920D01*
X1480999Y680999D01*
X1471920Y687966D01*
X1461347Y692346D01*
X1450000Y693840D01*
D02*
G37*
G36*
X1505000Y1234644D02*
Y1205000D01*
X1534644D01*
X1534099Y1209137D01*
X1530572Y1217651D01*
X1524962Y1224962D01*
X1517651Y1230572D01*
X1509137Y1234099D01*
X1505000Y1234644D01*
D02*
G37*
G36*
X1495000D02*
X1490863Y1234099D01*
X1482349Y1230572D01*
X1475038Y1224962D01*
X1469428Y1217651D01*
X1465901Y1209137D01*
X1465356Y1205000D01*
X1495000D01*
Y1234644D01*
D02*
G37*
G36*
X1534644Y1195000D02*
X1505000D01*
Y1165356D01*
X1509137Y1165901D01*
X1517651Y1169428D01*
X1524962Y1175038D01*
X1530572Y1182349D01*
X1534099Y1190863D01*
X1534644Y1195000D01*
D02*
G37*
G36*
X470000Y1395000D02*
X440356D01*
X440901Y1390863D01*
X444428Y1382349D01*
X450038Y1375038D01*
X457349Y1369428D01*
X465863Y1365901D01*
X470000Y1365356D01*
Y1395000D01*
D02*
G37*
G36*
X480000Y1434644D02*
Y1405000D01*
X509644D01*
X509099Y1409137D01*
X505572Y1417651D01*
X499962Y1424962D01*
X492651Y1430572D01*
X484137Y1434099D01*
X480000Y1434644D01*
D02*
G37*
G36*
X470000D02*
X465863Y1434099D01*
X457349Y1430572D01*
X450038Y1424962D01*
X444428Y1417651D01*
X440901Y1409137D01*
X440356Y1405000D01*
X470000D01*
Y1434644D01*
D02*
G37*
G36*
X509644Y1395000D02*
X480000D01*
Y1365356D01*
X484137Y1365901D01*
X492651Y1369428D01*
X499962Y1375038D01*
X505572Y1382349D01*
X509099Y1390863D01*
X509644Y1395000D01*
D02*
G37*
G36*
X1495000Y1195000D02*
X1465356D01*
X1465901Y1190863D01*
X1469428Y1182349D01*
X1475038Y1175038D01*
X1482349Y1169428D01*
X1490863Y1165901D01*
X1495000Y1165356D01*
Y1195000D01*
D02*
G37*
G36*
X442795Y693181D02*
Y655000D01*
X480977D01*
X480141Y661346D01*
X475762Y671920D01*
X468795Y680999D01*
X459715Y687966D01*
X449142Y692346D01*
X442795Y693181D01*
D02*
G37*
G36*
X432795D02*
X426449Y692346D01*
X415875Y687966D01*
X406796Y680999D01*
X399829Y671920D01*
X395450Y661346D01*
X394614Y655000D01*
X432795D01*
Y693181D01*
D02*
G37*
G36*
X167205D02*
Y655000D01*
X205386D01*
X204550Y661346D01*
X200171Y671920D01*
X193204Y680999D01*
X184125Y687966D01*
X173551Y692346D01*
X167205Y693181D01*
D02*
G37*
G36*
X1307205D02*
X1300858Y692346D01*
X1290285Y687966D01*
X1281205Y680999D01*
X1274238Y671920D01*
X1269859Y661346D01*
X1269023Y655000D01*
X1307205D01*
Y693181D01*
D02*
G37*
G36*
X1592795D02*
Y655000D01*
X1630977D01*
X1630141Y661346D01*
X1625762Y671920D01*
X1618795Y680999D01*
X1609715Y687966D01*
X1599142Y692346D01*
X1592795Y693181D01*
D02*
G37*
G36*
X1582795D02*
X1576449Y692346D01*
X1565876Y687966D01*
X1556796Y680999D01*
X1549829Y671920D01*
X1545449Y661346D01*
X1544614Y655000D01*
X1582795D01*
Y693181D01*
D02*
G37*
G36*
X1317205D02*
Y655000D01*
X1355386D01*
X1354551Y661346D01*
X1350171Y671920D01*
X1343204Y680999D01*
X1334124Y687966D01*
X1323551Y692346D01*
X1317205Y693181D01*
D02*
G37*
%LPD*%
D18*
X1312205Y650000D02*
D03*
X1450000D02*
D03*
X1587795D02*
D03*
X162205D02*
D03*
X300000D02*
D03*
X437795D02*
D03*
D19*
X1450000Y338583D02*
D03*
X300000D02*
D03*
D20*
X875000Y875000D02*
D03*
D21*
X1500000Y1200000D02*
D03*
X475000Y1400000D02*
D03*
%TF.MD5,7a534b7a629210e9c0cb44b5133af40e*%
M02*
