G04 Layer_Color=255*
%FSLAX26Y26*%
%MOIN*%
%TF.FileFunction,Pads,Top*%
%TF.Part,Single*%
G01*
G75*
%TA.AperFunction,SMDPad,CuDef*%
%ADD10R,0.031496X0.035433*%
%ADD11R,0.031496X0.033465*%
%ADD12R,0.033465X0.031496*%
%ADD13R,0.061024X0.023622*%
%TA.AperFunction,ConnectorPad*%
%ADD14R,0.031496X0.033465*%
%TA.AperFunction,ComponentPad*%
%ADD18C,0.066929*%
%ADD19C,0.122047*%
%TA.AperFunction,ViaPad*%
%ADD20C,0.250000*%
D10*
X1500000Y903386D02*
D03*
X1462599Y986063D02*
D03*
X1537402D02*
D03*
D11*
X602559Y1400000D02*
D03*
X547441D02*
D03*
X602559Y1600000D02*
D03*
X547441D02*
D03*
D12*
X875000Y1347441D02*
D03*
Y1402559D02*
D03*
D13*
X1481299Y1300000D02*
D03*
Y1350000D02*
D03*
Y1400000D02*
D03*
Y1450000D02*
D03*
X1268701Y1300000D02*
D03*
Y1350000D02*
D03*
Y1400000D02*
D03*
Y1450000D02*
D03*
D14*
X197441Y1350000D02*
D03*
X252559D02*
D03*
D18*
X1312205Y650000D02*
D03*
X1450000D02*
D03*
X1587795D02*
D03*
X162205D02*
D03*
X300000D02*
D03*
X437795D02*
D03*
D19*
X1450000Y338583D02*
D03*
X300000D02*
D03*
D20*
X875000Y875000D02*
D03*
%TF.MD5,ca60fb7771faf04fd602675e43b5571d*%
M02*
