G04 Layer_Physical_Order=1*
G04 Layer_Color=255*
%FSLAX26Y26*%
%MOIN*%
%TF.FileFunction,Copper,L1,Top,Signal*%
%TF.Part,Single*%
G01*
G75*
%TA.AperFunction,SMDPad,CuDef*%
%ADD10R,0.031496X0.035433*%
%ADD11R,0.031496X0.033465*%
%ADD12R,0.033465X0.031496*%
%ADD13R,0.061024X0.023622*%
%TA.AperFunction,ConnectorPad*%
%ADD14R,0.031496X0.033465*%
%TA.AperFunction,Conductor*%
%ADD15C,0.020000*%
%ADD16C,0.060000*%
%ADD17C,0.040000*%
%TA.AperFunction,ComponentPad*%
%ADD18C,0.066929*%
%ADD19C,0.122047*%
%TA.AperFunction,ViaPad*%
%ADD20C,0.250000*%
%ADD21C,0.050000*%
G36*
X1700000Y50000D02*
X50000D01*
Y1700000D01*
X1700000D01*
Y50000D01*
D02*
G37*
%LPC*%
G36*
X343181Y645000D02*
X305000D01*
Y606819D01*
X311346Y607654D01*
X321920Y612034D01*
X330999Y619001D01*
X337966Y628080D01*
X342346Y638654D01*
X343181Y645000D01*
D02*
G37*
G36*
X295000D02*
X256819D01*
X257654Y638654D01*
X262034Y628080D01*
X269001Y619001D01*
X278080Y612034D01*
X288654Y607654D01*
X295000Y606819D01*
Y645000D01*
D02*
G37*
G36*
X1587795Y693840D02*
X1576449Y692346D01*
X1565876Y687966D01*
X1556796Y680999D01*
X1549829Y671920D01*
X1545449Y661346D01*
X1543956Y650000D01*
X1545449Y638654D01*
X1549829Y628080D01*
X1556796Y619001D01*
X1565876Y612034D01*
X1576449Y607654D01*
X1587795Y606160D01*
X1599142Y607654D01*
X1609715Y612034D01*
X1618795Y619001D01*
X1625762Y628080D01*
X1630141Y638654D01*
X1631635Y650000D01*
X1630141Y661346D01*
X1625762Y671920D01*
X1618795Y680999D01*
X1609715Y687966D01*
X1599142Y692346D01*
X1587795Y693840D01*
D02*
G37*
G36*
X1457599Y981063D02*
X1436851D01*
Y958347D01*
X1457599D01*
Y981063D01*
D02*
G37*
G36*
X305000Y693181D02*
Y655000D01*
X343181D01*
X342346Y661346D01*
X337966Y671920D01*
X330999Y680999D01*
X321920Y687966D01*
X311346Y692346D01*
X305000Y693181D01*
D02*
G37*
G36*
X295000D02*
X288654Y692346D01*
X278080Y687966D01*
X269001Y680999D01*
X262034Y671920D01*
X257654Y661346D01*
X256819Y655000D01*
X295000D01*
Y693181D01*
D02*
G37*
G36*
X1500000Y943731D02*
X1489558Y942356D01*
X1479827Y938326D01*
X1471472Y931914D01*
X1421472Y881914D01*
X1415060Y873558D01*
X1411030Y863828D01*
X1409655Y853386D01*
X1409655Y853385D01*
Y666176D01*
X1407654Y661346D01*
X1406160Y650000D01*
X1407654Y638654D01*
X1412034Y628080D01*
X1419001Y619001D01*
X1428080Y612034D01*
X1438653Y607654D01*
X1450000Y606160D01*
X1461347Y607654D01*
X1471920Y612034D01*
X1480999Y619001D01*
X1487966Y628080D01*
X1492346Y638654D01*
X1493840Y650000D01*
X1492346Y661346D01*
X1490345Y666176D01*
Y836674D01*
X1528528Y874858D01*
X1534940Y883213D01*
X1538970Y892944D01*
X1540345Y903386D01*
X1538970Y913828D01*
X1534940Y923558D01*
X1528528Y931914D01*
X1520173Y938326D01*
X1510442Y942356D01*
X1500000Y943731D01*
D02*
G37*
G36*
X875000Y1220416D02*
X841143Y1218753D01*
X807613Y1213779D01*
X774731Y1205543D01*
X742815Y1194123D01*
X712172Y1179630D01*
X683097Y1162203D01*
X655870Y1142010D01*
X630754Y1119246D01*
X607990Y1094130D01*
X587797Y1066903D01*
X570370Y1037828D01*
X555877Y1007185D01*
X544457Y975269D01*
X536221Y942387D01*
X531247Y908857D01*
X529584Y875000D01*
X531247Y841143D01*
X536221Y807613D01*
X544457Y774731D01*
X555877Y742815D01*
X570370Y712172D01*
X587797Y683097D01*
X607990Y655870D01*
X630754Y630754D01*
X655870Y607990D01*
X683097Y587797D01*
X712172Y570370D01*
X742815Y555877D01*
X774731Y544457D01*
X807613Y536221D01*
X841143Y531247D01*
X875000Y529584D01*
X908857Y531247D01*
X942387Y536221D01*
X975269Y544457D01*
X1007185Y555877D01*
X1037828Y570370D01*
X1066903Y587797D01*
X1094130Y607990D01*
X1119246Y630754D01*
X1142010Y655870D01*
X1162203Y683097D01*
X1179630Y712172D01*
X1194123Y742815D01*
X1205543Y774731D01*
X1213779Y807613D01*
X1218753Y841143D01*
X1220416Y875000D01*
X1218753Y908857D01*
X1213779Y942387D01*
X1205543Y975269D01*
X1194123Y1007185D01*
X1179630Y1037828D01*
X1162203Y1066903D01*
X1142010Y1094130D01*
X1119246Y1119246D01*
X1094130Y1142010D01*
X1066903Y1162203D01*
X1037828Y1179630D01*
X1007185Y1194123D01*
X975269Y1205543D01*
X942387Y1213779D01*
X908857Y1218753D01*
X875000Y1220416D01*
D02*
G37*
G36*
X1450000Y409950D02*
X1436077Y408579D01*
X1422689Y404517D01*
X1410351Y397922D01*
X1399536Y389047D01*
X1390660Y378232D01*
X1384065Y365894D01*
X1380004Y352506D01*
X1378633Y338583D01*
X1380004Y324660D01*
X1384065Y311272D01*
X1390660Y298933D01*
X1399536Y288118D01*
X1410351Y279243D01*
X1422689Y272648D01*
X1436077Y268587D01*
X1450000Y267215D01*
X1463923Y268587D01*
X1477311Y272648D01*
X1489649Y279243D01*
X1500464Y288118D01*
X1509340Y298933D01*
X1515935Y311272D01*
X1519996Y324660D01*
X1521367Y338583D01*
X1519996Y352506D01*
X1515935Y365894D01*
X1509340Y378232D01*
X1500464Y389047D01*
X1489649Y397922D01*
X1477311Y404517D01*
X1463923Y408579D01*
X1450000Y409950D01*
D02*
G37*
G36*
X300000D02*
X286077Y408579D01*
X272689Y404517D01*
X260351Y397922D01*
X249536Y389047D01*
X240660Y378232D01*
X234065Y365894D01*
X230004Y352506D01*
X228633Y338583D01*
X230004Y324660D01*
X234065Y311272D01*
X240660Y298933D01*
X249536Y288118D01*
X260351Y279243D01*
X272689Y272648D01*
X286077Y268587D01*
X300000Y267215D01*
X313923Y268587D01*
X327311Y272648D01*
X339649Y279243D01*
X350464Y288118D01*
X359340Y298933D01*
X365935Y311272D01*
X369996Y324660D01*
X371367Y338583D01*
X369996Y352506D01*
X365935Y365894D01*
X359340Y378232D01*
X350464Y389047D01*
X339649Y397922D01*
X327311Y404517D01*
X313923Y408579D01*
X300000Y409950D01*
D02*
G37*
G36*
X1312205Y693840D02*
X1300858Y692346D01*
X1290285Y687966D01*
X1281205Y680999D01*
X1274238Y671920D01*
X1269859Y661346D01*
X1268365Y650000D01*
X1269859Y638654D01*
X1274238Y628080D01*
X1281205Y619001D01*
X1290285Y612034D01*
X1300858Y607654D01*
X1312205Y606160D01*
X1323551Y607654D01*
X1334124Y612034D01*
X1343204Y619001D01*
X1350171Y628080D01*
X1354551Y638654D01*
X1356044Y650000D01*
X1354551Y661346D01*
X1350171Y671920D01*
X1343204Y680999D01*
X1334124Y687966D01*
X1323551Y692346D01*
X1312205Y693840D01*
D02*
G37*
G36*
X437795D02*
X426449Y692346D01*
X415875Y687966D01*
X406796Y680999D01*
X399829Y671920D01*
X395450Y661346D01*
X393956Y650000D01*
X395450Y638654D01*
X399829Y628080D01*
X406796Y619001D01*
X415875Y612034D01*
X426449Y607654D01*
X437795Y606160D01*
X449142Y607654D01*
X459715Y612034D01*
X468795Y619001D01*
X475762Y628080D01*
X480141Y638654D01*
X481635Y650000D01*
X480141Y661346D01*
X475762Y671920D01*
X468795Y680999D01*
X459715Y687966D01*
X449142Y692346D01*
X437795Y693840D01*
D02*
G37*
G36*
X162205D02*
X150858Y692346D01*
X140285Y687966D01*
X131205Y680999D01*
X124239Y671920D01*
X119859Y661346D01*
X118365Y650000D01*
X119859Y638654D01*
X124239Y628080D01*
X131205Y619001D01*
X140285Y612034D01*
X150858Y607654D01*
X162205Y606160D01*
X173551Y607654D01*
X184125Y612034D01*
X193204Y619001D01*
X200171Y628080D01*
X204550Y638654D01*
X206044Y650000D01*
X204550Y661346D01*
X200171Y671920D01*
X193204Y680999D01*
X184125Y687966D01*
X173551Y692346D01*
X162205Y693840D01*
D02*
G37*
G36*
X1488347Y981063D02*
X1467599D01*
Y958347D01*
X1488347D01*
Y981063D01*
D02*
G37*
G36*
X576811Y1626732D02*
X573189D01*
X571811Y1626732D01*
X521693D01*
Y1603090D01*
X460581Y1541978D01*
X456160Y1535363D01*
X454608Y1527559D01*
Y1428469D01*
X450038Y1424962D01*
X444428Y1417651D01*
X440901Y1409137D01*
X439698Y1400000D01*
X440901Y1390863D01*
X444428Y1382349D01*
X449766Y1375392D01*
X449302Y1372870D01*
X448461Y1370392D01*
X278307D01*
Y1376732D01*
X228189D01*
X226811Y1376732D01*
X223189D01*
X221811Y1376732D01*
X202441D01*
Y1350000D01*
Y1323268D01*
X221811D01*
X223189Y1323268D01*
X226811D01*
X228189Y1323268D01*
X278307D01*
Y1329608D01*
X848268D01*
Y1321693D01*
X901732D01*
Y1327049D01*
X1266142D01*
X1271872Y1328189D01*
X1309213D01*
Y1371811D01*
X1228189D01*
Y1367833D01*
X901732D01*
Y1373189D01*
X901732D01*
Y1376811D01*
X901732D01*
Y1382167D01*
X1228189D01*
Y1378189D01*
X1309213D01*
Y1379608D01*
X1341553D01*
X1385581Y1335581D01*
X1392196Y1331160D01*
X1400000Y1329608D01*
X1440787D01*
Y1328189D01*
X1521811D01*
Y1367280D01*
X1526811Y1369351D01*
X1579608Y1316553D01*
Y1053171D01*
X1540217Y1013780D01*
X1511654D01*
Y958347D01*
X1563150D01*
Y979036D01*
X1614419Y1030305D01*
X1614419Y1030305D01*
X1618840Y1036921D01*
X1620392Y1044725D01*
Y1325000D01*
X1618840Y1332804D01*
X1614419Y1339419D01*
X1539419Y1414419D01*
X1532804Y1418840D01*
X1525000Y1420392D01*
X1521811D01*
Y1421811D01*
X1440787D01*
Y1378189D01*
X1514509D01*
X1515430Y1376811D01*
X1512757Y1371811D01*
X1440787D01*
Y1370392D01*
X1408447D01*
X1364419Y1414419D01*
X1357804Y1418840D01*
X1350000Y1420392D01*
X1309213D01*
Y1421811D01*
X1271872D01*
X1266142Y1422951D01*
X901732D01*
Y1428307D01*
X848268D01*
Y1422951D01*
X628307D01*
Y1426732D01*
X576811D01*
X576811Y1426733D01*
X573189D01*
Y1426732D01*
X571811Y1426732D01*
X561297D01*
X555273Y1429228D01*
X547441Y1430259D01*
X495392D01*
Y1519112D01*
X549547Y1573268D01*
X571811D01*
X573189Y1573268D01*
X576811D01*
X578189Y1573268D01*
X628307D01*
Y1579608D01*
X1110254D01*
X1228189Y1461673D01*
Y1428189D01*
X1309213D01*
Y1471811D01*
X1275728D01*
X1133120Y1614419D01*
X1126504Y1618840D01*
X1118701Y1620392D01*
X628307D01*
Y1626732D01*
X578189D01*
X576811Y1626732D01*
D02*
G37*
G36*
X192441Y1376732D02*
X171693D01*
Y1355000D01*
X192441D01*
Y1376732D01*
D02*
G37*
G36*
Y1345000D02*
X171693D01*
Y1323268D01*
X192441D01*
Y1345000D01*
D02*
G37*
G36*
X1476299Y1445000D02*
X1440787D01*
Y1428189D01*
X1476299D01*
Y1445000D01*
D02*
G37*
G36*
X1521811Y1471811D02*
X1486299D01*
Y1455000D01*
X1521811D01*
Y1471811D01*
D02*
G37*
G36*
X1476299D02*
X1440787D01*
Y1455000D01*
X1476299D01*
Y1471811D01*
D02*
G37*
G36*
X1521811Y1445000D02*
X1486299D01*
Y1428189D01*
X1521811D01*
Y1445000D01*
D02*
G37*
G36*
Y1321811D02*
X1440787D01*
Y1278189D01*
X1474272D01*
X1479608Y1272853D01*
Y1228469D01*
X1475038Y1224962D01*
X1469428Y1217651D01*
X1465901Y1209137D01*
X1464698Y1200000D01*
X1465901Y1190863D01*
X1469428Y1182349D01*
X1475038Y1175038D01*
X1482349Y1169428D01*
X1490863Y1165901D01*
X1500000Y1164698D01*
X1509137Y1165901D01*
X1517651Y1169428D01*
X1524962Y1175038D01*
X1530572Y1182349D01*
X1534099Y1190863D01*
X1535302Y1200000D01*
X1534099Y1209137D01*
X1530572Y1217651D01*
X1524962Y1224962D01*
X1520392Y1228469D01*
Y1278189D01*
X1521811D01*
Y1321811D01*
D02*
G37*
G36*
X1488347Y1013780D02*
X1467599D01*
Y991063D01*
X1488347D01*
Y1013780D01*
D02*
G37*
G36*
X1457599D02*
X1436851D01*
Y991063D01*
X1457599D01*
Y1013780D01*
D02*
G37*
G36*
X1263701Y1295000D02*
X1228189D01*
Y1278189D01*
X1263701D01*
Y1295000D01*
D02*
G37*
G36*
X1309213Y1321811D02*
X1273701D01*
Y1305000D01*
X1309213D01*
Y1321811D01*
D02*
G37*
G36*
X1263701D02*
X1228189D01*
Y1305000D01*
X1263701D01*
Y1321811D01*
D02*
G37*
G36*
X1309213Y1295000D02*
X1273701D01*
Y1278189D01*
X1309213D01*
Y1295000D01*
D02*
G37*
%LPD*%
D10*
X1500000Y903386D02*
D03*
X1462599Y986063D02*
D03*
X1537402D02*
D03*
D11*
X602559Y1400000D02*
D03*
X547441D02*
D03*
X602559Y1600000D02*
D03*
X547441D02*
D03*
D12*
X875000Y1347441D02*
D03*
Y1402559D02*
D03*
D13*
X1481299Y1300000D02*
D03*
Y1350000D02*
D03*
Y1400000D02*
D03*
Y1450000D02*
D03*
X1268701Y1300000D02*
D03*
Y1350000D02*
D03*
Y1400000D02*
D03*
Y1450000D02*
D03*
D14*
X197441Y1350000D02*
D03*
X252559D02*
D03*
D15*
X1541339Y986063D02*
X1600000Y1044725D01*
X1537402Y986063D02*
X1541339D01*
X1481299Y1300000D02*
X1500000Y1281299D01*
Y1200000D02*
Y1281299D01*
X1268701Y1400000D02*
X1350000D01*
X1400000Y1350000D01*
X1481299D01*
X875000Y1347441D02*
X1266142D01*
X1268701Y1350000D01*
X875000Y1402559D02*
X1266142D01*
X1268701Y1400000D01*
X605118Y1402559D02*
X875000D01*
X602559Y1400000D02*
X605118Y1402559D01*
X602559Y1600000D02*
X1118701D01*
X1268701Y1450000D01*
X475000Y1527559D02*
X547441Y1600000D01*
X475000Y1400000D02*
Y1527559D01*
X252559Y1350000D02*
X872441D01*
X875000Y1347441D01*
X1600000Y1044725D02*
Y1325000D01*
X1525000Y1400000D02*
X1600000Y1325000D01*
X1481299Y1400000D02*
X1525000D01*
D16*
X1450000Y650000D02*
Y853386D01*
X1500000Y903386D01*
D17*
X475000Y1400000D02*
X547441D01*
D18*
X1312205Y650000D02*
D03*
X1450000D02*
D03*
X1587795D02*
D03*
X162205D02*
D03*
X300000D02*
D03*
X437795D02*
D03*
D19*
X1450000Y338583D02*
D03*
X300000D02*
D03*
D20*
X875000Y875000D02*
D03*
D21*
X1500000Y1200000D02*
D03*
X475000Y1400000D02*
D03*
%TF.MD5,d54e5d9779729095e327984b15c38e87*%
M02*
