G04 Layer_Color=65535*
%FSLAX26Y26*%
%MOIN*%
%TF.FileFunction,Legend,Top*%
%TF.Part,Single*%
G01*
G75*
%TA.AperFunction,NonConductor*%
%ADD31C,0.009842*%
%ADD32C,0.010000*%
%ADD33C,0.007874*%
%ADD34C,0.004000*%
%ADD35C,0.005000*%
D31*
X1575787Y980158D02*
G03*
X1575787Y980158I-4921J0D01*
G01*
D32*
X1205000Y875000D02*
G03*
X1205000Y875000I-330000J0D01*
G01*
X1485000Y1270000D02*
G03*
X1485000Y1270000I-5000J0D01*
G01*
X1237500Y1572481D02*
Y1522497D01*
X1247497Y1512500D01*
X1267490D01*
X1277487Y1522497D01*
Y1572481D01*
X1297481Y1512500D02*
X1317474D01*
X1307477D01*
Y1572481D01*
X1297481Y1562484D01*
X858000Y1461000D02*
Y1520981D01*
X887990D01*
X897987Y1510984D01*
Y1490990D01*
X887990Y1480994D01*
X858000D01*
X877994D02*
X897987Y1461000D01*
X957968D02*
X917981D01*
X957968Y1500987D01*
Y1510984D01*
X947971Y1520981D01*
X927977D01*
X917981Y1510984D01*
X200000Y1225000D02*
Y1284981D01*
X229990D01*
X239987Y1274984D01*
Y1254990D01*
X229990Y1244994D01*
X200000D01*
X219994D02*
X239987Y1225000D01*
X259981D02*
X279974D01*
X269977D01*
Y1284981D01*
X259981Y1274984D01*
X1364987Y934997D02*
Y974984D01*
X1354990Y984981D01*
X1334997D01*
X1325000Y974984D01*
Y934997D01*
X1334997Y925000D01*
X1354990D01*
X1344994Y944994D02*
X1364987Y925000D01*
X1354990D02*
X1364987Y934997D01*
X1384981Y925000D02*
X1404974D01*
X1394977D01*
Y984981D01*
X1384981Y974984D01*
X1575000Y738583D02*
Y798563D01*
X1604990D01*
X1614987Y788567D01*
Y768573D01*
X1604990Y758576D01*
X1575000D01*
X1674968Y738583D02*
X1634981D01*
X1674968Y778570D01*
Y788567D01*
X1664971Y798563D01*
X1644977D01*
X1634981Y788567D01*
X33500Y743083D02*
Y803063D01*
X63490D01*
X73487Y793067D01*
Y773073D01*
X63490Y763076D01*
X33500D01*
X93481Y743083D02*
X113474D01*
X103477D01*
Y803063D01*
X93481Y793067D01*
X439987Y1624984D02*
X429990Y1634981D01*
X409997D01*
X400000Y1624984D01*
Y1584997D01*
X409997Y1575000D01*
X429990D01*
X439987Y1584997D01*
X499968Y1575000D02*
X459981D01*
X499968Y1614987D01*
Y1624984D01*
X489971Y1634981D01*
X469977D01*
X459981Y1624984D01*
X564987Y1349984D02*
X554990Y1359981D01*
X534997D01*
X525000Y1349984D01*
Y1309997D01*
X534997Y1300000D01*
X554990D01*
X564987Y1309997D01*
X584981Y1300000D02*
X604974D01*
X594977D01*
Y1359981D01*
X584981Y1349984D01*
X1184981Y425000D02*
X1125000D01*
Y395010D01*
X1134997Y385013D01*
X1144994D01*
X1154990Y395010D01*
Y425000D01*
Y395010D01*
X1164987Y385013D01*
X1174984D01*
X1184981Y395010D01*
Y425000D01*
X1125000Y365019D02*
Y345026D01*
Y355023D01*
X1184981D01*
Y365019D01*
X1125000Y315036D02*
Y295042D01*
Y305039D01*
X1164987D01*
Y315036D01*
X1125000Y265052D02*
X1164987D01*
Y235061D01*
X1154990Y225065D01*
X1125000D01*
Y205071D02*
X1184981D01*
X1144994D02*
X1164987Y175081D01*
X1144994Y205071D02*
X1125000Y175081D01*
Y115100D02*
Y135094D01*
X1134997Y145091D01*
X1154990D01*
X1164987Y135094D01*
Y115100D01*
X1154990Y105103D01*
X1144994D01*
Y145091D01*
X1164987Y85110D02*
X1125000D01*
X1144994D01*
X1154990Y75113D01*
X1164987Y65117D01*
Y55120D01*
X675000Y50000D02*
Y69993D01*
Y59997D01*
X615019D01*
X625016Y50000D01*
X675000Y139971D02*
Y99984D01*
X635013Y139971D01*
X625016D01*
X615019Y129974D01*
Y109981D01*
X625016Y99984D01*
X615019Y159964D02*
X655006D01*
X675000Y179958D01*
X655006Y199952D01*
X615019D01*
D33*
X1438976Y905354D02*
Y934882D01*
Y905354D02*
X1472441D01*
X1527559D02*
X1561024D01*
Y934882D01*
D34*
X525000Y1375000D02*
X625000D01*
X525000Y1425000D02*
X625000D01*
X525000Y1375000D02*
Y1425000D01*
X625000Y1375000D02*
Y1425000D01*
X525000Y1575000D02*
X625000D01*
X525000Y1625000D02*
X625000D01*
X525000Y1575000D02*
Y1625000D01*
X625000Y1575000D02*
Y1625000D01*
X850000Y1325000D02*
Y1425000D01*
X900000Y1325000D02*
Y1425000D01*
X850000D02*
X900000D01*
X850000Y1325000D02*
X900000D01*
X175000Y1375000D02*
X275000D01*
X175000Y1325000D02*
X275000D01*
Y1375000D01*
X175000Y1325000D02*
Y1375000D01*
D35*
X1325000Y1473425D02*
X1425000D01*
X1325000Y1276575D02*
X1425000D01*
Y1473425D01*
X1325000Y1276575D02*
Y1473425D01*
%TF.MD5,e56eae02d8263727ec9247b5aabafcea*%
M02*
