G04 Layer_Physical_Order=1*
G04 Layer_Color=255*
%FSLAX44Y44*%
%MOMM*%
G71*
G01*
G75*
%ADD10R,0.9000X0.8000*%
%ADD11R,1.5500X0.6000*%
%ADD12R,0.5000X0.8000*%
%ADD13C,0.5000*%
%ADD14C,0.8000*%
%ADD15C,0.5080*%
%ADD16C,3.5560*%
%ADD17C,2.0320*%
%ADD18C,0.8000*%
D10*
X199050Y92050D02*
D03*
Y73050D02*
D03*
X220050Y82550D02*
D03*
D11*
X160350Y25400D02*
D03*
Y38100D02*
D03*
Y50800D02*
D03*
Y63500D02*
D03*
X106350Y25400D02*
D03*
Y38100D02*
D03*
Y50800D02*
D03*
Y63500D02*
D03*
D12*
X77350Y76200D02*
D03*
X62350D02*
D03*
X77350Y38100D02*
D03*
X62350D02*
D03*
Y19050D02*
D03*
X77350D02*
D03*
Y57150D02*
D03*
X62350D02*
D03*
D13*
X62850D02*
Y76200D01*
X106350Y63500D02*
X107100D01*
X95250D02*
X106350D01*
Y25400D02*
X107100D01*
X101600D02*
X106350D01*
X77350Y76200D02*
X82550D01*
X76850D02*
X77350D01*
X168250Y63500D02*
X177800Y73050D01*
X62350Y76200D02*
X62850D01*
X50800D02*
X62350D01*
X82550D02*
X95250Y63500D01*
X161100D02*
X168250D01*
X161100Y25400D02*
X177800D01*
X62850Y19050D02*
X62909D01*
X75609Y6350D01*
X82550D01*
X101600Y25400D01*
D14*
X325628Y82550D02*
X361315Y118237D01*
X270002Y82550D02*
X325628D01*
X220050D02*
X270002D01*
X361950Y174498D01*
Y175768D01*
X31750Y50150D02*
X62850Y19050D01*
X69850Y95250D02*
X152400D01*
X31750D02*
X69850D01*
X177800Y73050D02*
X199050D01*
X174600D02*
X177800D01*
X152400Y95250D02*
X174600Y73050D01*
X31750Y50150D02*
Y95250D01*
X69850D02*
Y174498D01*
D15*
X76850Y52100D02*
Y57150D01*
X106350Y38100D02*
X107100D01*
X77350D02*
X106350D01*
Y50800D02*
X127000D01*
X95250D02*
X106350D01*
X160350Y38100D02*
X161100D01*
X139700D02*
X160350D01*
X77350Y57150D02*
X88900D01*
X76850D02*
X77350D01*
X184150Y92050D02*
X199050D01*
X127000Y50800D02*
X139700Y38100D01*
X161100Y50800D02*
X177800D01*
X184150Y57150D01*
X88900D02*
X95250Y50800D01*
X62850Y38100D02*
X76850Y52100D01*
X77350Y19050D02*
Y38100D01*
D16*
X361950Y44450D02*
D03*
Y247650D02*
D03*
X69850D02*
D03*
D17*
X361950Y87630D02*
D03*
Y117602D02*
D03*
Y174498D02*
D03*
Y204470D02*
D03*
X69850Y174498D02*
D03*
Y204470D02*
D03*
D18*
X184150Y92050D02*
D03*
X50800Y76200D02*
D03*
X184150Y57150D02*
D03*
X177800Y25400D02*
D03*
M02*
