G04 Layer_Color=65535*
%FSLAX44Y44*%
%MOMM*%
G71*
G01*
G75*
%ADD19C,0.2500*%
%ADD20C,0.2540*%
%ADD21C,0.2000*%
%ADD22C,0.1270*%
D19*
X201800Y101550D02*
G03*
X201800Y101550I-1250J0D01*
G01*
D20*
X161120Y15450D02*
G03*
X161120Y15450I-1270J0D01*
G01*
X299720Y203200D02*
G03*
X299720Y203200I-83820J0D01*
G01*
D21*
X212050Y98050D02*
X219550D01*
Y67050D02*
Y74050D01*
X212050Y67050D02*
X219550D01*
Y91050D02*
Y98050D01*
X326950Y-1730D02*
X396450D01*
Y131770D01*
X326950D02*
X396450D01*
X326950Y-1730D02*
Y131770D01*
X396950Y160330D02*
Y293830D01*
X327450Y160330D02*
X396950D01*
X327450D02*
Y293830D01*
X396950D01*
X104850Y160330D02*
Y293830D01*
X35350Y160330D02*
X104850D01*
X35350D02*
Y293830D01*
X104850D01*
X55850Y84200D02*
X83850D01*
Y68200D02*
Y84200D01*
X55850Y68200D02*
X83850D01*
X55850D02*
Y84200D01*
Y46100D02*
X83850D01*
Y30100D02*
Y46100D01*
X55850Y30100D02*
X83850D01*
X55850D02*
Y46100D01*
Y11050D02*
X83850D01*
X55850D02*
Y27050D01*
X83850D01*
Y11050D02*
Y27050D01*
X55850Y65150D02*
X83850D01*
Y49150D02*
Y65150D01*
X55850Y49150D02*
X83850D01*
X55850D02*
Y65150D01*
X317500Y65380D02*
Y68712D01*
Y67046D01*
X307503D01*
X309169Y65380D01*
X317500Y80375D02*
Y73711D01*
X310835Y80375D01*
X309169D01*
X307503Y78709D01*
Y75377D01*
X309169Y73711D01*
X307503Y83707D02*
X314168D01*
X317500Y87040D01*
X314168Y90372D01*
X307503D01*
X309169Y110145D02*
X307503Y108478D01*
Y105146D01*
X309169Y103480D01*
X315834D01*
X317500Y105146D01*
Y108478D01*
X315834Y110145D01*
X312502D01*
Y106812D01*
X317500Y113477D02*
X307503D01*
X317500Y120141D01*
X307503D01*
Y123474D02*
X317500D01*
Y128472D01*
X315834Y130138D01*
X309169D01*
X307503Y128472D01*
Y123474D01*
X402753Y5080D02*
X412750D01*
Y10078D01*
X411084Y11745D01*
X404419D01*
X402753Y10078D01*
Y5080D01*
X406086Y16743D02*
Y20075D01*
X407752Y21741D01*
X412750D01*
Y16743D01*
X411084Y15077D01*
X409418Y16743D01*
Y21741D01*
X412750Y25074D02*
Y30072D01*
X411084Y31738D01*
X409418Y30072D01*
Y26740D01*
X407752Y25074D01*
X406086Y26740D01*
Y31738D01*
X402753Y35070D02*
X412750D01*
X407752D01*
X406086Y36737D01*
Y40069D01*
X407752Y41735D01*
X412750D01*
X404419Y61728D02*
X402753Y60062D01*
Y56730D01*
X404419Y55064D01*
X406086D01*
X407752Y56730D01*
Y60062D01*
X409418Y61728D01*
X411084D01*
X412750Y60062D01*
Y56730D01*
X411084Y55064D01*
X404419Y66727D02*
X406086D01*
Y65061D01*
Y68393D01*
Y66727D01*
X411084D01*
X412750Y68393D01*
X406086Y73391D02*
X412750D01*
X409418D01*
X407752Y75058D01*
X406086Y76724D01*
Y78390D01*
X412750Y85054D02*
Y88386D01*
X411084Y90053D01*
X407752D01*
X406086Y88386D01*
Y85054D01*
X407752Y83388D01*
X411084D01*
X412750Y85054D01*
X402753Y93385D02*
X412750D01*
Y98383D01*
X411084Y100049D01*
X409418D01*
X407752D01*
X406086Y98383D01*
Y93385D01*
X412750Y108380D02*
Y105048D01*
X411084Y103382D01*
X407752D01*
X406086Y105048D01*
Y108380D01*
X407752Y110046D01*
X409418D01*
Y103382D01*
X32064Y78181D02*
X30398Y79847D01*
X27066D01*
X25400Y78181D01*
Y71516D01*
X27066Y69850D01*
X30398D01*
X32064Y71516D01*
X42061Y69850D02*
X35397D01*
X42061Y76515D01*
Y78181D01*
X40395Y79847D01*
X37063D01*
X35397Y78181D01*
X25400Y12700D02*
Y22697D01*
X30398D01*
X32064Y21031D01*
Y17698D01*
X30398Y16032D01*
X25400D01*
X28732D02*
X32064Y12700D01*
X35397D02*
X38729D01*
X37063D01*
Y22697D01*
X35397Y21031D01*
X25400Y31750D02*
Y41747D01*
X30398D01*
X32064Y40081D01*
Y36748D01*
X30398Y35082D01*
X25400D01*
X28732D02*
X32064Y31750D01*
X42061D02*
X35397D01*
X42061Y38414D01*
Y40081D01*
X40395Y41747D01*
X37063D01*
X35397Y40081D01*
X32064Y59131D02*
X30398Y60797D01*
X27066D01*
X25400Y59131D01*
Y52466D01*
X27066Y50800D01*
X30398D01*
X32064Y52466D01*
X35397Y50800D02*
X38729D01*
X37063D01*
Y60797D01*
X35397Y59131D01*
X25400Y246380D02*
X15403D01*
Y251378D01*
X17069Y253044D01*
X20402D01*
X22068Y251378D01*
Y246380D01*
X25400Y258043D02*
Y261375D01*
X23734Y263041D01*
X20402D01*
X18736Y261375D01*
Y258043D01*
X20402Y256377D01*
X23734D01*
X25400Y258043D01*
X18736Y266374D02*
X23734D01*
X25400Y268040D01*
X23734Y269706D01*
X25400Y271372D01*
X23734Y273038D01*
X18736D01*
X25400Y281369D02*
Y278036D01*
X23734Y276370D01*
X20402D01*
X18736Y278036D01*
Y281369D01*
X20402Y283035D01*
X22068D01*
Y276370D01*
X18736Y286367D02*
X25400D01*
X22068D01*
X20402Y288033D01*
X18736Y289699D01*
Y291366D01*
X412750Y173228D02*
X402753D01*
Y178226D01*
X404419Y179893D01*
X407752D01*
X409418Y178226D01*
Y173228D01*
Y176560D02*
X412750Y179893D01*
Y184891D02*
Y188223D01*
X411084Y189889D01*
X407752D01*
X406086Y188223D01*
Y184891D01*
X407752Y183225D01*
X411084D01*
X412750Y184891D01*
Y194888D02*
Y198220D01*
X411084Y199886D01*
X407752D01*
X406086Y198220D01*
Y194888D01*
X407752Y193222D01*
X411084D01*
X412750Y194888D01*
Y204884D02*
X404419D01*
X407752D01*
Y203218D01*
Y206551D01*
Y204884D01*
X404419D01*
X402753Y206551D01*
X404419Y228210D02*
X402753Y226544D01*
Y223212D01*
X404419Y221546D01*
X406086D01*
X407752Y223212D01*
Y226544D01*
X409418Y228210D01*
X411084D01*
X412750Y226544D01*
Y223212D01*
X411084Y221546D01*
X404419Y233209D02*
X406086D01*
Y231542D01*
Y234875D01*
Y233209D01*
X411084D01*
X412750Y234875D01*
X406086Y239873D02*
X412750D01*
X409418D01*
X407752Y241539D01*
X406086Y243205D01*
Y244872D01*
X412750Y251536D02*
Y254868D01*
X411084Y256535D01*
X407752D01*
X406086Y254868D01*
Y251536D01*
X407752Y249870D01*
X411084D01*
X412750Y251536D01*
X402753Y259867D02*
X412750D01*
Y264865D01*
X411084Y266531D01*
X409418D01*
X407752D01*
X406086Y264865D01*
Y259867D01*
X412750Y274862D02*
Y271530D01*
X411084Y269863D01*
X407752D01*
X406086Y271530D01*
Y274862D01*
X407752Y276528D01*
X409418D01*
Y269863D01*
X309169Y170494D02*
X307503Y168828D01*
Y165496D01*
X309169Y163830D01*
X315834D01*
X317500Y165496D01*
Y168828D01*
X315834Y170494D01*
X312502D01*
Y167162D01*
X317500Y173827D02*
X307503D01*
X317500Y180491D01*
X307503D01*
Y183824D02*
X317500D01*
Y188822D01*
X315834Y190488D01*
X309169D01*
X307503Y188822D01*
Y183824D01*
X17069Y209865D02*
X15403Y208198D01*
Y204866D01*
X17069Y203200D01*
X23734D01*
X25400Y204866D01*
Y208198D01*
X23734Y209865D01*
X20402D01*
Y206532D01*
X25400Y213197D02*
X15403D01*
X25400Y219861D01*
X15403D01*
Y223194D02*
X25400D01*
Y228192D01*
X23734Y229858D01*
X17069D01*
X15403Y228192D01*
Y223194D01*
X25400Y165410D02*
Y168742D01*
Y167076D01*
X15403D01*
X17069Y165410D01*
X25400Y180405D02*
Y173741D01*
X18736Y180405D01*
X17069D01*
X15403Y178739D01*
Y175407D01*
X17069Y173741D01*
X15403Y183737D02*
X22068D01*
X25400Y187070D01*
X22068Y190402D01*
X15403D01*
X317500Y201930D02*
Y205262D01*
Y203596D01*
X307503D01*
X309169Y201930D01*
X317500Y216925D02*
Y210261D01*
X310835Y216925D01*
X309169D01*
X307503Y215259D01*
Y211927D01*
X309169Y210261D01*
X307503Y220257D02*
X314168D01*
X317500Y223590D01*
X314168Y226922D01*
X307503D01*
D22*
X120650Y69450D02*
X146050D01*
X120650Y19450D02*
X146050D01*
Y69450D01*
X120650Y19450D02*
Y69450D01*
M02*
