G04*
G04 #@! TF.GenerationSoftware,Altium Limited,Altium Designer,18.1.9 (240)*
G04*
G04 Layer_Color=65535*
%FSLAX44Y44*%
%MOMM*%
G71*
G01*
G75*
%ADD10C,0.2540*%
%ADD11C,0.1000*%
%ADD12C,0.1500*%
D10*
X954691Y1039426D02*
G03*
X954691Y1039426I-83820J0D01*
G01*
D11*
X849107Y875046D02*
X921497D01*
X845297Y871236D02*
X849107Y875046D01*
X845297Y749316D02*
Y871236D01*
X921497Y749316D02*
Y875046D01*
X920227Y749316D02*
X921497D01*
X845297D02*
X920227D01*
X762484Y934223D02*
X991084D01*
X866624D02*
X876784Y944383D01*
X866624Y924063D02*
Y944383D01*
X876784Y924063D02*
Y944383D01*
X866624Y934223D02*
X876784Y924063D01*
D12*
X947289Y874724D02*
X945623D01*
X944790Y873891D01*
Y870558D01*
X945623Y869725D01*
X947289D01*
X948122Y870558D01*
Y873891D01*
X947289Y874724D01*
X949789Y873058D02*
Y870558D01*
X950622Y869725D01*
X953121D01*
Y873058D01*
X955620Y873891D02*
Y873058D01*
X954787D01*
X956453D01*
X955620D01*
Y870558D01*
X956453Y869725D01*
X948898Y844599D02*
X950564D01*
X949731D01*
Y839601D01*
X948898D01*
X950564D01*
X953063D02*
Y842933D01*
X955563D01*
X956396Y842100D01*
Y839601D01*
X759502Y896826D02*
X758669Y897659D01*
X757003D01*
X756170Y896826D01*
Y893494D01*
X757003Y892661D01*
X758669D01*
X759502Y893494D01*
X762002Y892661D02*
X763668D01*
X764501Y893494D01*
Y895160D01*
X763668Y895993D01*
X762002D01*
X761169Y895160D01*
Y893494D01*
X762002Y892661D01*
X766167D02*
X767833D01*
X767000D01*
Y895993D01*
X766167D01*
X770332Y892661D02*
X771998D01*
X771165D01*
Y897659D01*
X770332D01*
X991255Y896826D02*
X990422Y897659D01*
X988756D01*
X987923Y896826D01*
Y895993D01*
X988756Y895160D01*
X990422D01*
X991255Y894327D01*
Y893494D01*
X990422Y892661D01*
X988756D01*
X987923Y893494D01*
X992921Y892661D02*
X994587D01*
X993754D01*
Y895993D01*
X992921D01*
X998753Y890995D02*
X999586D01*
X1000419Y891828D01*
Y895993D01*
X997920D01*
X997087Y895160D01*
Y893494D01*
X997920Y892661D01*
X1000419D01*
X1002085D02*
Y895993D01*
X1004584D01*
X1005417Y895160D01*
Y892661D01*
X1007916Y895993D02*
X1009583D01*
X1010416Y895160D01*
Y892661D01*
X1007916D01*
X1007083Y893494D01*
X1007916Y894327D01*
X1010416D01*
X1012082Y892661D02*
X1013748D01*
X1012915D01*
Y897659D01*
X1012082D01*
X707633Y837364D02*
X709299D01*
X708466D01*
Y842363D01*
X707633Y841530D01*
X715130Y837364D02*
X711798D01*
X715130Y840696D01*
Y841530D01*
X714297Y842363D01*
X712631D01*
X711798Y841530D01*
X716797Y842363D02*
Y839030D01*
X718463Y837364D01*
X720129Y839030D01*
Y842363D01*
X710394Y874685D02*
X709560Y875518D01*
X707894D01*
X707061Y874685D01*
Y871352D01*
X707894Y870519D01*
X709560D01*
X710394Y871352D01*
Y873019D01*
X708727D01*
X712060Y870519D02*
Y875518D01*
X715392Y870519D01*
Y875518D01*
X717058D02*
Y870519D01*
X719557D01*
X720390Y871352D01*
Y874685D01*
X719557Y875518D01*
X717058D01*
X846371Y899150D02*
Y891153D01*
Y893819D01*
X851703Y899150D01*
X847704Y895152D01*
X851703Y891153D01*
X854368D02*
X857034D01*
X855701D01*
Y899150D01*
X854368Y897817D01*
X964713Y891373D02*
Y899370D01*
X968711D01*
X970044Y898037D01*
Y895371D01*
X968711Y894038D01*
X964713D01*
X978042Y891373D02*
X972710D01*
X978042Y896704D01*
Y898037D01*
X976709Y899370D01*
X974043D01*
X972710Y898037D01*
X727796Y891373D02*
Y899370D01*
X731795D01*
X733128Y898037D01*
Y895371D01*
X731795Y894038D01*
X727796D01*
X735794Y891373D02*
X738459D01*
X737126D01*
Y899370D01*
X735794Y898037D01*
X739917Y959393D02*
Y951396D01*
X743916D01*
X745249Y952729D01*
Y958060D01*
X743916Y959393D01*
X739917D01*
X747915Y951396D02*
X750580D01*
X749248D01*
Y959393D01*
X747915Y958060D01*
M02*
