G04*
G04 #@! TF.GenerationSoftware,Altium Limited,Altium Designer,18.1.9 (240)*
G04*
G04 Layer_Physical_Order=2*
G04 Layer_Color=16711680*
%FSLAX44Y44*%
%MOMM*%
G71*
G01*
G75*
%ADD20R,1.4000X1.4000*%
%ADD21C,1.4000*%
%ADD22C,2.0000*%
%ADD23C,3.0480*%
%ADD24C,1.2800*%
G36*
X1048467Y945218D02*
X1050176Y943509D01*
Y817472D01*
X704535D01*
X704426Y817363D01*
X703253Y817849D01*
Y946027D01*
X704153Y946923D01*
X1048467Y945218D01*
D02*
G37*
%LPC*%
G36*
X1005054Y943032D02*
Y935493D01*
X1012593D01*
X1012455Y936546D01*
X1011558Y938711D01*
X1010131Y940570D01*
X1008272Y941997D01*
X1006107Y942894D01*
X1005054Y943032D01*
D02*
G37*
G36*
X1002514D02*
X1001460Y942894D01*
X999295Y941997D01*
X997436Y940570D01*
X996010Y938711D01*
X995113Y936546D01*
X994974Y935493D01*
X1002514D01*
Y943032D01*
D02*
G37*
G36*
X745784Y942215D02*
X743715Y941943D01*
X741787Y941144D01*
X740132Y939874D01*
X738862Y938219D01*
X738064Y936291D01*
X737791Y934223D01*
X738064Y932154D01*
X738862Y930226D01*
X740132Y928571D01*
X741787Y927301D01*
X743715Y926503D01*
X745784Y926230D01*
X747852Y926503D01*
X749780Y927301D01*
X751435Y928571D01*
X752705Y930226D01*
X753504Y932154D01*
X753776Y934223D01*
X753504Y936291D01*
X752705Y938219D01*
X751435Y939874D01*
X749780Y941144D01*
X747852Y941943D01*
X745784Y942215D01*
D02*
G37*
G36*
X1012593Y932953D02*
X1005054D01*
Y925413D01*
X1006107Y925552D01*
X1008272Y926448D01*
X1010131Y927875D01*
X1011558Y929734D01*
X1012455Y931899D01*
X1012593Y932953D01*
D02*
G37*
G36*
X1002514D02*
X994974D01*
X995113Y931899D01*
X996010Y929734D01*
X997436Y927875D01*
X999295Y926448D01*
X1001460Y925552D01*
X1002514Y925413D01*
Y932953D01*
D02*
G37*
G36*
X766190Y884339D02*
Y873168D01*
X777361D01*
X777099Y875162D01*
X775839Y878202D01*
X773836Y880814D01*
X771224Y882817D01*
X768184Y884077D01*
X766190Y884339D01*
D02*
G37*
G36*
X763650D02*
X761657Y884077D01*
X758616Y882817D01*
X756005Y880814D01*
X754002Y878202D01*
X752742Y875162D01*
X752480Y873168D01*
X763650D01*
Y884339D01*
D02*
G37*
G36*
X1001674Y883522D02*
X998666Y883126D01*
X995863Y881965D01*
X993455Y880117D01*
X991608Y877710D01*
X990447Y874907D01*
X990051Y871898D01*
X990447Y868890D01*
X991608Y866087D01*
X993455Y863679D01*
X995863Y861832D01*
X998666Y860671D01*
X1001674Y860275D01*
X1004683Y860671D01*
X1007486Y861832D01*
X1009893Y863679D01*
X1011740Y866087D01*
X1012902Y868890D01*
X1013298Y871898D01*
X1012902Y874907D01*
X1011740Y877710D01*
X1009893Y880117D01*
X1007486Y881965D01*
X1004683Y883126D01*
X1001674Y883522D01*
D02*
G37*
G36*
X777361Y870628D02*
X766190D01*
Y859458D01*
X768184Y859720D01*
X771224Y860980D01*
X773836Y862983D01*
X775839Y865594D01*
X777099Y868635D01*
X777361Y870628D01*
D02*
G37*
G36*
X763650D02*
X752480D01*
X752742Y868635D01*
X754002Y865594D01*
X756005Y862983D01*
X758616Y860980D01*
X761657Y859720D01*
X763650Y859458D01*
Y870628D01*
D02*
G37*
G36*
X866521Y872140D02*
X849473D01*
Y855092D01*
X866521D01*
Y872140D01*
D02*
G37*
G36*
X908797Y872214D02*
X906572Y871921D01*
X904499Y871062D01*
X902718Y869696D01*
X901352Y867915D01*
X900493Y865842D01*
X900200Y863616D01*
X900493Y861391D01*
X901352Y859318D01*
X902718Y857537D01*
X904499Y856171D01*
X906572Y855312D01*
X908797Y855019D01*
X911022Y855312D01*
X913096Y856171D01*
X914877Y857537D01*
X916243Y859318D01*
X917102Y861391D01*
X917395Y863616D01*
X917102Y865842D01*
X916243Y867915D01*
X914877Y869696D01*
X913096Y871062D01*
X911022Y871921D01*
X908797Y872214D01*
D02*
G37*
G36*
X910067Y847631D02*
Y839486D01*
X918212D01*
X918053Y840696D01*
X917095Y843007D01*
X915573Y844992D01*
X913588Y846515D01*
X911277Y847472D01*
X910067Y847631D01*
D02*
G37*
G36*
X907527Y847631D02*
X906317Y847472D01*
X904006Y846515D01*
X902022Y844992D01*
X900499Y843007D01*
X899542Y840696D01*
X899383Y839486D01*
X907527D01*
Y847631D01*
D02*
G37*
G36*
X1001674Y853550D02*
X998666Y853154D01*
X995863Y851993D01*
X993455Y850145D01*
X991608Y847738D01*
X990447Y844935D01*
X990051Y841926D01*
X990447Y838918D01*
X991608Y836115D01*
X993455Y833707D01*
X995863Y831860D01*
X998666Y830699D01*
X1001674Y830303D01*
X1004683Y830699D01*
X1007486Y831860D01*
X1009893Y833707D01*
X1011740Y836115D01*
X1012902Y838918D01*
X1013298Y841926D01*
X1012902Y844935D01*
X1011740Y847738D01*
X1009893Y850145D01*
X1007486Y851993D01*
X1004683Y853154D01*
X1001674Y853550D01*
D02*
G37*
G36*
X764920D02*
X761912Y853154D01*
X759109Y851993D01*
X756701Y850145D01*
X754854Y847738D01*
X753693Y844935D01*
X753297Y841926D01*
X753693Y838918D01*
X754854Y836115D01*
X756701Y833707D01*
X759109Y831860D01*
X761912Y830699D01*
X764920Y830303D01*
X767929Y830699D01*
X770732Y831860D01*
X773139Y833707D01*
X774987Y836115D01*
X776148Y838918D01*
X776544Y841926D01*
X776148Y844935D01*
X774987Y847738D01*
X773139Y850145D01*
X770732Y851993D01*
X767929Y853154D01*
X764920Y853550D01*
D02*
G37*
G36*
X857997Y846814D02*
X855772Y846521D01*
X853699Y845662D01*
X851918Y844296D01*
X850552Y842515D01*
X849693Y840442D01*
X849400Y838216D01*
X849693Y835991D01*
X850552Y833918D01*
X851918Y832137D01*
X853699Y830771D01*
X855772Y829912D01*
X857997Y829619D01*
X860222Y829912D01*
X862296Y830771D01*
X864077Y832137D01*
X865443Y833918D01*
X866302Y835991D01*
X866595Y838216D01*
X866302Y840442D01*
X865443Y842515D01*
X864077Y844296D01*
X862296Y845662D01*
X860222Y846521D01*
X857997Y846814D01*
D02*
G37*
G36*
X918212Y836946D02*
X910067D01*
Y828802D01*
X911277Y828961D01*
X913588Y829918D01*
X915573Y831441D01*
X917095Y833425D01*
X918053Y835736D01*
X918212Y836946D01*
D02*
G37*
G36*
X907527D02*
X899383D01*
X899542Y835736D01*
X900499Y833425D01*
X902022Y831441D01*
X904006Y829918D01*
X906317Y828961D01*
X907527Y828802D01*
Y836946D01*
D02*
G37*
%LPD*%
D20*
X857997Y863616D02*
D03*
D21*
X908797D02*
D03*
Y838216D02*
D03*
X857997D02*
D03*
X908797Y762016D02*
D03*
X857997D02*
D03*
D22*
X764920Y871898D02*
D03*
Y841926D02*
D03*
X1001674Y871898D02*
D03*
Y841926D02*
D03*
D23*
X764920Y798746D02*
D03*
X1001674D02*
D03*
D24*
X1003784Y934223D02*
D03*
X745784D02*
D03*
M02*
