G04*
G04 #@! TF.GenerationSoftware,Altium Limited,Altium Designer,18.1.6 (161)*
G04*
G04 Layer_Color=65535*
%FSLAX44Y44*%
%MOMM*%
G71*
G01*
G75*
%ADD10C,0.2540*%
%ADD11C,0.2000*%
D10*
X581660Y518160D02*
G03*
X581660Y518160I-83820J0D01*
G01*
X351231Y588965D02*
X352897Y590632D01*
Y593964D01*
X351231Y595630D01*
X344566D01*
X342900Y593964D01*
Y590632D01*
X344566Y588965D01*
X347898D01*
Y592298D01*
X342900Y585633D02*
X352897D01*
X342900Y578969D01*
X352897D01*
Y575636D02*
X342900D01*
Y570638D01*
X344566Y568972D01*
X351231D01*
X352897Y570638D01*
Y575636D01*
X576265Y643179D02*
X577932Y641513D01*
X581264D01*
X582930Y643179D01*
Y649844D01*
X581264Y651510D01*
X577932D01*
X576265Y649844D01*
Y646512D01*
X579598D01*
X572933Y651510D02*
Y641513D01*
X566269Y651510D01*
Y641513D01*
X562936D02*
Y651510D01*
X557938D01*
X556272Y649844D01*
Y643179D01*
X557938Y641513D01*
X562936D01*
X652069Y437195D02*
X650403Y435528D01*
Y432196D01*
X652069Y430530D01*
X658734D01*
X660400Y432196D01*
Y435528D01*
X658734Y437195D01*
X655402D01*
Y433862D01*
X660400Y440527D02*
X650403D01*
X660400Y447191D01*
X650403D01*
Y450524D02*
X660400D01*
Y455522D01*
X658734Y457188D01*
X652069D01*
X650403Y455522D01*
Y450524D01*
X372110Y595630D02*
Y592298D01*
Y593964D01*
X382107D01*
X380441Y595630D01*
X372110Y580635D02*
Y587299D01*
X378774Y580635D01*
X380441D01*
X382107Y582301D01*
Y585633D01*
X380441Y587299D01*
X382107Y577303D02*
X375442D01*
X372110Y573970D01*
X375442Y570638D01*
X382107D01*
X581660Y631190D02*
X578328D01*
X579994D01*
Y621193D01*
X581660Y622859D01*
X566665Y631190D02*
X573329D01*
X566665Y624525D01*
Y622859D01*
X568331Y621193D01*
X571663D01*
X573329Y622859D01*
X563333Y621193D02*
Y627858D01*
X560000Y631190D01*
X556668Y627858D01*
Y621193D01*
X629920Y431800D02*
Y435132D01*
Y433466D01*
X619923D01*
X621589Y431800D01*
X629920Y446795D02*
Y440131D01*
X623256Y446795D01*
X621589D01*
X619923Y445129D01*
Y441797D01*
X621589Y440131D01*
X619923Y450127D02*
X626588D01*
X629920Y453460D01*
X626588Y456792D01*
X619923D01*
X621344Y677621D02*
X619678Y679287D01*
X616346D01*
X614680Y677621D01*
Y670956D01*
X616346Y669290D01*
X619678D01*
X621344Y670956D01*
X624677Y669290D02*
X628009D01*
X626343D01*
Y679287D01*
X624677D01*
X634674Y675955D02*
X638006D01*
X639672Y674288D01*
Y669290D01*
X634674D01*
X633007Y670956D01*
X634674Y672622D01*
X639672D01*
X643004Y675955D02*
Y669290D01*
Y672622D01*
X644670Y674288D01*
X646337Y675955D01*
X648003D01*
X657999Y669290D02*
X654667D01*
X653001Y670956D01*
Y674288D01*
X654667Y675955D01*
X657999D01*
X659666Y674288D01*
Y672622D01*
X653001D01*
X672995Y669290D02*
Y679287D01*
X676327Y675955D01*
X679659Y679287D01*
Y669290D01*
X611185Y702147D02*
X604520D01*
Y697148D01*
X607852D01*
X604520D01*
Y692150D01*
X616183Y698814D02*
X619515D01*
X621181Y697148D01*
Y692150D01*
X616183D01*
X614517Y693816D01*
X616183Y695482D01*
X621181D01*
X624514Y692150D02*
Y698814D01*
X629512D01*
X631178Y697148D01*
Y692150D01*
X644507Y702147D02*
Y692150D01*
X649505D01*
X651172Y693816D01*
Y695482D01*
X649505Y697148D01*
X644507D01*
X649505D01*
X651172Y698814D01*
Y700481D01*
X649505Y702147D01*
X644507D01*
X656170Y692150D02*
X659502D01*
X661168Y693816D01*
Y697148D01*
X659502Y698814D01*
X656170D01*
X654504Y697148D01*
Y693816D01*
X656170Y692150D01*
X666167Y698814D02*
X669499D01*
X671165Y697148D01*
Y692150D01*
X666167D01*
X664501Y693816D01*
X666167Y695482D01*
X671165D01*
X674498Y698814D02*
Y692150D01*
Y695482D01*
X676164Y697148D01*
X677830Y698814D01*
X679496D01*
X691159Y702147D02*
Y692150D01*
X686160D01*
X684494Y693816D01*
Y697148D01*
X686160Y698814D01*
X691159D01*
X536255Y418541D02*
X534588Y420207D01*
X531256D01*
X529590Y418541D01*
Y411876D01*
X531256Y410210D01*
X534588D01*
X536255Y411876D01*
Y415208D01*
X532922D01*
X539587Y410210D02*
Y420207D01*
X546251Y410210D01*
Y420207D01*
X549584D02*
Y410210D01*
X554582D01*
X556248Y411876D01*
Y418541D01*
X554582Y420207D01*
X549584D01*
X491490Y410210D02*
X494822D01*
X493156D01*
Y420207D01*
X491490Y418541D01*
X506485Y410210D02*
X499821D01*
X506485Y416875D01*
Y418541D01*
X504819Y420207D01*
X501487D01*
X499821Y418541D01*
X509817Y420207D02*
Y413542D01*
X513150Y410210D01*
X516482Y413542D01*
Y420207D01*
X458784Y418541D02*
X457118Y420207D01*
X453786D01*
X452120Y418541D01*
Y411876D01*
X453786Y410210D01*
X457118D01*
X458784Y411876D01*
Y415208D01*
X455452D01*
X462117Y410210D02*
Y420207D01*
X468781Y410210D01*
Y420207D01*
X472114D02*
Y410210D01*
X477112D01*
X478778Y411876D01*
Y418541D01*
X477112Y420207D01*
X472114D01*
D11*
X602270Y466090D02*
Y566420D01*
X735330D01*
Y466090D02*
Y566420D01*
X602270Y466090D02*
X735330D01*
X393410Y462280D02*
Y562610D01*
X260350Y462280D02*
X393410D01*
X260350D02*
Y562610D01*
X393410D01*
X449580Y611160D02*
X549910D01*
X449580D02*
Y744220D01*
X549910D01*
Y611160D02*
Y744220D01*
M02*
