M48
;Layer_Color=9474304
;FILE_FORMAT=4:4
METRIC,LZ
;TYPE=PLATED
T1F00S00C1.0600
T2F00S00C1.1430
T3F00S00C3.0480
;TYPE=NON_PLATED
T4F00S00C3.1000
T5F00S00C5.1500
%
T01
X0046848Y0038735
X0050348
X0053848
T02
X00484124Y00624078
X00514096
Y0065405
X00484124
X00615188Y00531876
Y00501904
X0064516
Y00531876
X00380492Y00526796
Y00496824
X0035052
Y00526796
T03
X0049911Y0069723
X0068834Y0051689
X0030734Y0051181
T04
X0050348Y0030825
T05
X0049784Y0051816
M30
